<?xml version="1.0" encoding="UTF-8"?><svg id="Logo" xmlns="http://www.w3.org/2000/svg" width="1080" height="1080" xmlns:xlink="http://www.w3.org/1999/xlink" viewBox="0 0 1080 1080"><defs><style>.cls-1{fill:#a17425;}.cls-2{stroke-width:4px;}.cls-2,.cls-3{fill:none;stroke:#a17425;stroke-miterlimit:10;}.cls-3{stroke-width:5px;}</style><symbol id="New_Symbol_1" viewBox="0 0 147.56 96.18"><path class="cls-1" d="M127.11,34.35l-.05-.84-.11-.84-.12-.83-.22-.79-.22-.78-.23-.78-.33-.73-.28-.73-.39-.73-.39-.67-.9-1.34-.5-.62-.5-.61-1.12-1.12-.61-.51-.62-.5-.67-.45-.67-.44-.67-.4-.72-.39-.73-.33-.78-.28-.73-.28-.78-.23-.84-.16-.78-.17-.84-.06-.83-.11h-1.68l-.78.06-.78.11-.73.11-.78.17-.73.22-.72.23-.73.27-.67.28-.67.34-.67.34-.67.39-.61.39-.56.45-.62.44-.56.51-.55.5-.51.51-.5.55-.45.62-.44.56-.39.67-.4.62-.39.67-.28.67-.33.67-.28.73-.22.73-.17.72-.17.73-.17.78-.11.79-5.69-.06-.84-1.28-1.06-1.57-1.23-1.74-1.45-1.95-1.57-2.02-1.56-2.07-1.68-2.07-1.56-1.96-.73-.95-.61-.95-.5-.9-.4-.89-.27-.9-.23-.78-.17-.78-.05-.79v-.67l.05-.61.12-.56.11-.51.17-.44.22-.34.17-.28.22-.17.45-.22.44-.17.39-.11.45-.06h.84l.45.11.44.06.39.17.45.17.39.22.39.22.84.56.73.62.72.61.73.68.61.72.62.62.95,1.12.67.78.16.11.17.06h.34l.44-.11.51-.28.55-.34.56-.39.56-.5.56-.51,1.12-1.17.95-1.07.39-.55.28-.45.28-.34.11-.33.11-.23.06-.28v-.5l-.12-.56-.16-.62-.34-.56-.39-.61-.45-.62-.56-.56-.61-.61-.61-.56-.73-.5-.73-.51-.78-.39-.78-.39-.78-.39-.78-.23-.62-.17-.61-.11-.62-.05h-1.28l-.62.05-.61.17-.61.11-.62.23-.61.22-.62.28-.61.28-1.23.67-1.12.84-1.11.84-1.07.95-.94,1.01-.95,1.06-.84,1.06-.73,1.12-.61,1.07-.51,1.06-.55,1.4-.39,1.34-.34,1.34-.17,1.24v.61l-.05.56.05.62.06.5.05.56.12.5.11.45.17.45.44.84.67,1.17.9,1.35,1.06,1.56,1.17,1.79,1.34,1.9,1.4,2.02,1.39,2.18-7.15-.05-.11-.79-.11-.72-.17-.79-.22-.73-.22-.72-.28-.67-.28-.68-.34-.67-.39-.67-.39-.67-.39-.62-.45-.56-.44-.56-.51-.55-.5-.56-.56-.51-.56-.5-.55-.45-.62-.39-.61-.45-.67-.33-.67-.4-.67-.28-.67-.33-.73-.22-.73-.23-.72-.22-.73-.17-.78-.11-.78-.11-.78-.06h-1.62l-.84.11-.84.06-.84.17-.78.16-.78.23-.78.28-.73.28-.72.33-.73.39-.67.4-.67.44-.67.45-.62.5-.61.51-.56.56-.56.56-.5.61-.5.62-.45.67-.45.67-.39.67-.39.73-.33.73-.28.73-.28.78-.22.78-.17.79-.11.83-.12.84-.05.84-.06.84.06.84.05.84.12.84.11.84.17.78.22.79.28.78.28.73.33.72.78,1.46.45.67.45.62.5.61.5.62.56.56.56.56.61.56.62.44.67.51.67.39.67.39.73.39.72.34.73.28.78.28.78.22.78.17.84.17.84.11.84.05h1.62l.78-.05.78-.11.78-.11.73-.17.78-.23.73-.22.67-.22.72-.34.67-.28.67-.39.62-.34.61-.44.62-.4.61-.5.56-.45.5-.56.56-.5.45-.56.5-.56.45-.62.39-.61.39-.67.33-.62.34-.67.28-.73.28-.67.22-.73.22-.72.17-.79.17-.78.05-.73h9.5l.84,1.35.78,1.34.78,1.34.67,1.34.67,1.29.61,1.29.51,1.23.44,1.17.4,1.12.22,1.07.17,1.06.05.9v.44l-.05.45-.06.39-.11.39-.17.34-.17.34-.22.33-.22.28-.39.34-.4.28-.44.22-.39.17-.39.11-.4.06h-.39l-.39-.06-.44-.11-.39-.11-.4-.23-.33-.22-.39-.28-.39-.28-.34-.34-.33-.33-.67-.84-.56-.84-.5-.95-.45-1.01-.39-1.01-.28-1-.11-1.01-.06-.95-.05-.23-.06-.28-.06-.16-.16-.12h-.17l-.34.06-.56.34-.94.67-1.23.95-1.4,1.12-1.45,1.17-1.34,1.23-.67.62-.56.56-.5.56-.39.5.05.56.11.51.17.5.22.45.28.5.28.39.39.45.34.39.45.34.44.39.45.33.5.28,1.06.56,1.18.51,1.17.39,1.17.33,1.23.28,1.17.17,1.12.17,1.06.06.95-.06.84-.06.72-.11.73-.11.73-.22.67-.23.67-.22.67-.28.67-.34.61-.33.62-.39.61-.4.56-.39.56-.45.56-.5.5-.5.45-.51.5-.56.39-.56.45-.55.33-.62.34-.62.33-.61.28-.67.22-.62.23-.67.16-.67.12-.73.11-.67.05-.73v-.67l-.05-.73-.06-.72-.11-.68-.45-1.9-.5-1.84-.61-1.85-.67-1.79h4.02l.11.78.11.79.17.72.22.73.23.73.28.72.27.68.34.67.39.67.39.62.39.61.45.62.45.56.5.56.5.5.56.5.56.51.56.44.61.45.62.39.67.39.61.34.73.34.67.28.72.22.67.28.78.17.73.17.78.11.78.11.79.05h1.62l.83-.05.84-.11.78-.17.84-.17.78-.22.73-.28.78-.28.73-.34.72-.39.67-.39.67-.39.67-.51.62-.44.61-.56,1.12-1.12.5-.62.5-.61.45-.62.45-.67.78-1.46.28-.72.33-.73.23-.78.22-.79.22-.78.12-.84.11-.84.05-.84.06-.84-.06-.84ZM63.44,41.35l-.05.45-.11.5-.11.45-.17.39-.17.39-.22.39-.28.34-.28.28-.28.28-.34.22-.28.17-.33.17-.34.11-.39.11-.39.06-.39.05-.84.06-.83-.06-.9-.17-.95-.28-.95-.33-1-.45-.95-.5-1.01-.62-1-.73-.95-.78-.95-.84-.95-.89-.84-1.01-.84-1.01-.67-1.01-.67-1-.55-1.07-.45-1-.39-1.01-.28-.95-.22-.95-.06-.95-.06-.84.12-.84.05-.39.11-.4.11-.33.17-.34.17-.33.22-.28.23-.34.28-.22.27-.28.28-.17.28-.22.34-.12.39-.16.33-.12.4-.05.39-.06.83-.05.84.05.95.17.9.28,1,.34.95.44,1,.51.95.61,1.01.73.95.78.95.84.95.95.67.73.61.73.56.78.56.73h-3.74l-.28-.5-.78-.9-.51-.33-.5-.28-.56-.23-.61-.11-.62-.06h-.44l-.39.12-.45.05-.39.17-.39.17-.34.22-.33.28-.28.28-.28.28-.28.34-.22.33-.17.39-.17.4-.05.44-.12.39v.9l.12.45.05.39.17.39.17.39.22.34.28.33.28.34.28.28.33.22.34.23.39.17.39.16.45.11.39.06h.44l.67-.06.62-.11.56-.22.56-.34.5-.39.39-.39.39-.5.28-.56h5.47l.39,1.17.28,1.12.06.56.05.5v1.07ZM120.75,41.91l-.06.39-.11.39-.11.34-.17.33-.17.34-.22.33-.22.28-.28.23-.28.28-.28.22-.34.17-.33.17-.34.11-.33.11-.39.06-.39.05-.84.06-.9-.06-.89-.17-.95-.28-.95-.33-.95-.45-1-.5-1.01-.62-.95-.73-1-.78-.95-.84-.9-.89-.67-.79-.61-.72-.56-.73-.56-.79h3.74l.28.56.39.45.4.39.5.34.5.28.56.22.61.11.62.06h.44l.4-.06.44-.11.39-.16.34-.17.39-.23.33-.22.28-.28.28-.34.28-.33.23-.34.16-.39.11-.39.12-.39.05-.45.06-.45-.06-.45-.05-.39-.12-.44-.11-.4-.16-.39-.23-.33-.28-.34-.56-.56-.33-.28-.39-.22-.34-.17-.39-.17-.44-.05-.4-.12h-.44l-.67.06-.62.11-.61.28-.5.28-.51.39-.44.45-.34.5-.28.56-5.47-.05-.39-1.18-.28-1.12-.06-.56-.05-.5v-1.01l.05-.5.11-.45.12-.45.16-.44.17-.39.23-.34.27-.39.56-.56.28-.17.34-.22.33-.12.34-.16.39-.12.39-.05.39-.06.78-.05.9.05.89.17.95.28.95.34,1,.44.95.51,1.01.61,1,.73.95.78.95.84.95.95.84.96.78,1,.73,1.01.67,1.06.5,1.01.5,1.01.39,1,.28,1.01.17.95.11.9.06.89-.11.79Z"/><polygon class="cls-1" points="147.33 61.43 146.05 62.5 145.32 63.17 144.71 63.67 143.98 64.4 143.03 65.24 142.19 66.08 141.36 66.81 140.46 67.59 139.4 68.32 138.23 69.16 136.78 70.05 134.99 71 133.98 71.51 132.87 72.01 131.75 72.51 130.58 72.96 129.35 73.35 128.12 73.8 126.84 74.19 125.49 74.53 122.81 75.2 120.02 75.82 117.23 76.32 114.38 76.77 111.53 77.1 108.8 77.38 106.06 77.55 103.49 77.72 101.03 77.77 98.74 77.77 96.62 77.66 94.72 77.55 94.67 76.04 94.61 74.47 94.55 72.91 94.44 71.45 94.39 70.16 94.33 69.1 94.27 68.43 94.27 68.21 94.55 68.15 95.34 67.93 96.45 67.53 97.85 67.03 98.63 66.75 99.41 66.41 100.25 66.02 101.03 65.58 101.87 65.13 102.65 64.62 103.38 64.12 104.05 63.51 103.94 63 103.83 62.61 101.81 62.61 99.41 62.55 96.73 62.55 93.94 62.5 91.15 62.55 88.58 62.61 86.29 62.72 84.45 62.89 83.38 63.51 82.66 64.01 82.04 64.4 81.43 64.96 81.32 65.07 81.26 65.24 81.32 65.35 81.49 65.52 81.93 65.86 82.66 66.25 83.5 66.75 84.45 67.42 84.95 67.81 85.45 68.21 85.95 68.71 86.4 69.27 86.85 69.83 87.18 70.44 87.46 71.11 87.68 71.73 87.8 72.4 87.91 73.07 87.96 73.69 88.02 74.3 88.02 75.42 87.91 76.26 87.85 76.88 87.8 77.1 87.18 77.1 85.56 77.05 83.22 76.99 80.42 76.93 77.58 76.93 74.84 76.88 72.66 76.82 71.21 76.82 71.04 76.32 70.82 75.65 70.37 74.53 69.59 72.85 69.31 72.35 69.03 71.9 68.7 71.39 68.36 70.95 67.97 70.56 67.52 70.16 67.08 69.77 66.63 69.38 65.62 68.71 64.56 68.15 63.5 67.65 62.38 67.25 61.66 67.09 60.93 66.97 60.21 66.86 58.7 66.86 57.92 66.97 57.13 67.09 56.41 67.25 55.63 67.42 54.84 67.7 54.12 67.98 53.34 68.26 52.61 68.65 51.94 69.04 51.27 69.49 50.6 69.94 49.99 70.44 49.37 70.95 48.81 71.51 48.31 72.12 47.86 72.74 47.42 73.35 47.03 74.02 46.75 74.7 46.47 75.37 46.3 76.09 46.13 76.88 46.08 77.61 46.08 78.39 46.13 79.17 46.3 79.96 46.52 80.8 46.8 81.41 47.19 82.08 47.58 82.75 47.92 83.37 48.37 83.2 48.81 83.03 49.26 82.81 49.71 82.53 50.66 81.91 51.66 81.24 52.55 80.46 53.45 79.62 54.23 78.84 54.9 78 54.84 77.83 54.79 77.66 54.68 77.55 54.51 77.38 54.17 77.1 53.78 76.82 53.45 76.43 53.11 75.93 53 75.65 52.89 75.31 52.83 74.92 52.83 74.47 52.89 73.91 53 73.41 53.17 73.02 53.45 72.68 53.73 72.4 54.12 72.23 54.51 72.12 54.96 72.07 55.4 72.07 55.85 72.12 56.35 72.23 56.86 72.35 57.3 72.57 57.8 72.79 58.25 73.02 58.64 73.35 59.09 73.74 59.59 74.3 60.1 74.98 60.65 75.82 61.27 76.77 61.83 77.77 62.33 78.89 62.83 80.01 63.22 81.19 63.56 82.36 63.72 82.92 63.78 83.54 63.89 84.1 63.95 84.66 63.95 85.22 63.89 85.72 63.84 86.28 63.72 86.73 63.56 87.23 63.39 87.68 63.11 88.13 62.83 88.52 62.44 89.02 62.05 89.41 61.6 89.8 61.1 90.08 60.65 90.31 60.1 90.47 59.59 90.59 59.03 90.64 58.48 90.64 57.92 90.59 57.3 90.47 56.74 90.36 55.51 89.97 54.34 89.47 53.11 88.85 51.94 88.24 50.82 87.51 49.82 86.84 47.92 85.55 46.52 84.54 44.74 83.26 42.61 81.63 40.27 79.73 37.7 77.61 34.96 75.26 32.17 72.79 29.27 70.28 26.42 67.7 23.62 65.13 20.94 62.61 18.43 60.2 16.14 57.97 14.13 55.9 12.4 54.11 11.73 53.27 11.11 52.54 10.61 51.92 10.22 51.42 10.33 51.08 10.56 50.58 10.95 50.02 11.45 49.29 12.79 47.61 14.52 45.54 16.53 43.25 18.82 40.68 21.22 38.05 23.74 35.36 28.71 30.04 33.12 25.4 36.36 21.99 37.92 20.36 38.7 19.53 39.26 18.91 39.71 18.41 40.27 17.79 40.16 17.01 39.93 16.17 39.6 15.44 39.26 14.66 38.48 13.26 37.7 11.97 36.69 11.8 35.69 11.75 34.57 11.69 31.11 11.69 29.94 11.75 28.82 11.75 26.14 11.8 23.46 11.86 20.72 11.92 18.04 11.97 15.3 12.03 12.62 12.08 9.89 12.14 7.2 12.2 6.2 13.37 5.14 14.66 4.19 15.94 3.24 17.23 2.4 18.52 1.73 19.58 1.17 20.48 .84 21.15 .61 21.65 .56 21.99 .5 22.15 .56 22.27 .61 22.38 .67 22.49 .84 22.55 1.56 22.55 2.18 22.49 3.63 22.32 5.53 22.04 7.65 21.76 10 21.43 12.45 21.09 14.86 20.81 17.48 20.59 19.88 20.42 22.12 20.31 24.13 20.25 25.86 20.25 27.37 20.31 27.98 20.36 28.48 20.42 28.93 20.53 29.32 20.59 29.15 20.98 28.82 21.48 28.37 22.1 27.81 22.88 26.42 24.73 24.63 26.91 20.16 32.17 15.14 37.99 10 43.81 5.42 48.96 1.9 52.87 0 54.89 .11 55.22 .5 55.73 1.12 56.4 1.9 57.24 3.97 59.31 6.7 61.94 9.89 64.9 13.46 68.15 17.31 71.62 21.33 75.14 25.41 78.72 29.38 82.14 33.23 85.38 36.75 88.29 39.82 90.87 42.45 92.88 43.51 93.66 44.4 94.28 45.07 94.73 45.63 95.01 46.19 95.29 46.8 95.46 47.47 95.68 48.09 95.79 49.37 96.01 50.71 96.18 53.39 96.18 54.73 96.01 56.02 95.79 57.3 95.51 58.53 95.18 59.7 94.78 60.82 94.28 61.88 93.78 62.83 93.22 63.72 92.6 64.45 91.99 64.95 91.54 65.68 90.92 66.57 90.08 67.47 89.02 67.97 88.4 68.47 87.79 68.92 87.06 69.37 86.28 69.76 85.5 70.15 84.6 70.48 83.65 70.76 82.64 71.94 82.75 73.5 82.81 75.45 82.92 77.8 83.03 80.31 83.09 83.1 83.2 86.06 83.26 89.14 83.31 95.39 83.31 98.52 83.26 101.53 83.2 104.38 83.09 107.01 82.92 109.41 82.7 111.48 82.42 113.88 82.03 116.11 81.58 118.23 81.13 120.25 80.63 122.09 80.12 123.88 79.56 125.55 78.95 127.17 78.33 128.68 77.72 130.07 77.05 131.47 76.32 132.76 75.59 134.04 74.81 135.21 74.02 136.44 73.24 137.56 72.4 138.68 71.56 139.79 70.56 141.02 69.49 142.25 68.26 143.59 66.97 144.88 65.52 146.22 64.01 147.56 62.39 147.5 61.83 147.33 61.43"/></symbol><symbol id="New_Symbol_4" viewBox="0 0 89.19 92.41"><path class="cls-1" d="M78.68,66.87c.95-3.24,1.43-6.59,1.42-9.97.01-9.42-3.73-18.45-10.4-25.11-3.91-3.92-8.68-6.86-13.93-8.6-1.89-8.49-5.71-16.43-11.18-23.19-5.45,6.76-9.25,14.69-11.12,23.17-5.28,1.74-10.07,4.69-13.99,8.62-6.67,6.66-10.41,15.69-10.4,25.11,0,3.38.48,6.75,1.42,9.99-6.01,7.05-9.68,15.8-10.5,25.02.22,0,.44,0,.65,0,8.39.01,16.67-1.86,24.25-5.46,5.83,3.89,12.68,5.96,19.69,5.95,7.05,0,13.95-2.09,19.8-6.02,7.57,3.59,15.84,5.45,24.21,5.44.2,0,.39-.01.59-.01-.83-9.2-4.5-17.92-10.51-24.95ZM57.11,35.46c0-2.33-.14-4.66-.43-6.97,3.61,1.54,6.9,3.77,9.67,6.55,5.78,5.76,9.02,13.59,9.01,21.75,0,2.02-.2,4.05-.59,6.03-5.71-5.21-12.67-8.85-20.2-10.57,1.69-5.43,2.54-11.09,2.54-16.79ZM44.55,8.33c2.59,4.21,4.57,8.77,5.86,13.53-1.93-.31-3.87-.47-5.82-.47s-3.93.16-5.86.48c1.28-4.77,3.24-9.33,5.82-13.54ZM37.66,26.82c2.27-.53,4.6-.79,6.94-.79s4.63.25,6.89.77c.47,2.83.71,5.7.7,8.57.01,5.45-.85,10.87-2.54,16.05-1.68-.19-3.36-.28-5.05-.28s-3.38.09-5.06.28c-1.71-5.21-2.58-10.66-2.57-16.14,0-2.84.22-5.67.69-8.46ZM47.85,56.14c-.94,2.13-2.02,4.2-3.24,6.18-1.23-1.98-2.31-4.05-3.25-6.18,1.08-.09,2.16-.13,3.24-.13s2.17.04,3.25.13ZM22.85,35.04c2.79-2.79,6.08-5.02,9.71-6.56-.28,2.28-.42,4.59-.42,6.89,0,5.72.86,11.41,2.57,16.87-7.56,1.71-14.55,5.35-20.27,10.58-.4-1.98-.6-4.01-.59-6.03,0-8.16,3.23-15.99,9-21.75ZM5.76,86.71c1.25-5.26,3.55-10.2,6.76-14.54,1.74,3.66,4.09,6.98,6.96,9.84.33.33.67.66,1.01.98-4.7,1.96-9.66,3.21-14.73,3.72ZM22.85,78.53c-2.98-2.97-5.31-6.52-6.86-10.44.13-.13.26-.26.39-.4,5.47-5.48,12.42-9.24,20-10.83,1.41,3.44,3.17,6.73,5.23,9.83-1.39,1.82-2.9,3.54-4.52,5.16-3.5,3.5-7.48,6.49-11.83,8.85-.84-.68-1.64-1.4-2.41-2.17ZM44.6,87.54c-5.15,0-10.22-1.28-14.74-3.75,3.9-2.36,7.5-5.18,10.71-8.41,1.45-1.44,2.81-2.96,4.09-4.55,1.26,1.56,2.6,3.05,4.02,4.46,3.23,3.24,6.85,6.08,10.77,8.44-4.55,2.51-9.66,3.82-14.85,3.81ZM64,80.66c-4.39-2.37-8.4-5.37-11.92-8.9-1.58-1.58-3.06-3.25-4.42-5.02,2.07-3.11,3.83-6.41,5.25-9.87,7.54,1.6,14.46,5.36,19.91,10.82.13.14.26.27.39.4-1.54,3.92-3.88,7.47-6.86,10.44-.75.75-1.53,1.46-2.35,2.13ZM68.75,82.93c.32-.3.64-.61.95-.92,2.87-2.86,5.23-6.2,6.97-9.86,3.21,4.32,5.5,9.24,6.75,14.47-5.04-.5-9.99-1.75-14.67-3.69Z"/></symbol><symbol id="New_Symbol_5" viewBox="0 0 95.39 95.39"><path class="cls-1" d="M58.73,17.63c-1-1.65-3.1-2.07-4.21-3.62-1.87-1.05-4.06-.93-6.11-1.28-2.33-.5-4.31.99-6.41,1.67-1.87.7-3,2.46-3.76,4.2-.72.62-1.52,1.18-2.12,1.92-.81,1.53-.73,3.29-1.08,4.94-.9,2.97.07,6.05-.71,9.05.45,2,.05,3.98-.25,5.97.93,2.82-.75,5.57-.21,8.42.21,1.74-.28,3.52.1,5.26.54,2.04-.6,4.18.21,6.19.55,1.54.3,3.19.61,4.78,1.13,3.48,4.29,5.68,6.08,8.78.04,2.98-.39,6.27,1.47,8.85,3.25-2.7.54-7.51,3.14-10.54,1.86-2.35,4.28-4.32,5.53-7.11.67-1.53.32-3.22.42-4.83,1.16-4.48.34-9.18,1.13-13.71-.93-2.52-.3-5.14-.27-7.74.54-3.58.54-7.29,1.74-10.74,2.04-.83,3.96-2.06,4.9-4.14,1.13-.88,2.33-1.84,2.7-3.31-1.17-.8-2.15-1.82-2.9-3.01ZM40.9,48.06c-.83-1.11-2.07-1.47-3.21-2.07-1.46-1.88-2.94-4.36-1.98-6.8,1.06,1.17,2.08,2.37,3.12,3.56.2-.25.61-.74.81-.99.71,1.26,1.42,2.53,1.78,3.95-.96-.44-1.63-1.16-2.42-1.8.29,1.52,1.07,2.86,1.9,4.15ZM40.91,68.81c-.73-.45-1.4-.92-2.09-1.39.08.52.24,1.55.32,2.07-2.02-1.48-3.75-3.64-3.54-6.29,1.12.85,2.14,1.83,3.18,2.78.27-.44.54-.87.81-1.3.59,1.32,1.47,2.6,1.32,4.13ZM40.54,53.69c-.23.14-.68.42-.92.56.39,1.5,1.35,2.78,1.79,4.28-1.01-.51-1.72-1.36-2.64-1.98.52,1.94,1.98,3.46,2.51,5.4-.7-.42-1.38-.86-2.04-1.3.51,1.25,1.03,2.49,1.53,3.76-.34-.15-1.03-.46-1.38-.61-.24.38-.47.76-.71,1.14-.78-1.2-1.81-2.18-2.7-3.28-.91-1.2-.87-2.77-.94-4.2.32.12.97.36,1.3.48.85.77,1.72,1.56,2.8,2.01-1.13-2.78-5.33-4.65-3.7-8.11.63.75,1.29,1.53,1.86,2.35.23.09.68.3.9.4-.81-2-2.3-3.65-2.97-5.7-.13-1.25.04-2.49.16-3.72,1.35.67,2.13,2,2.95,3.19.31-.02.93-.06,1.23-.08.74,1.22,1.29,2.55,1.91,3.84-.85-.48-1.7-.93-2.56-1.37.47,1.01,1.06,1.97,1.62,2.94ZM42.62,78.13c-.86-6.29-.79-12.77.14-19.05.06,3.78.41,7.55.2,11.33.14,2.58.13,5.17-.34,7.72ZM42.88,57.8c-.79-.06-.93-.41-.43-1.05.78.05.92.4.43,1.05ZM42.75,44.64c-.34-3.21-.33-6.54.35-9.71-.07,3.24-.47,6.46-.35,9.71ZM51.09,41.43c-.21,2.7-2.29,4.76-2.63,7.4.78-.95,1.44-2.01,2.27-2.93.74,3.31-1.78,5.79-2.88,8.63,1.18-.79,1.77-2.19,3.03-2.87.62,3.79-2.64,6.28-3.73,9.55,1.29-1.16,1.95-2.9,3.55-3.74.18,3.12-2.34,5.17-3.62,7.72,1.08-.67,2.02-1.51,3.07-2.23-.9,3.19-2.8,6.2-5.57,8.06.12-1.47.85-2.75,1.63-3.97-.63.25-1.26.48-1.89.7.59-1.27,1.41-2.41,2.13-3.62-.46.16-1.39.48-1.85.63.13-.53.4-1.58.54-2.12.61-.84,1.26-1.66,1.87-2.51-.57.27-1.71.8-2.28,1.07.6-1.17,1.27-2.31,1.91-3.45-.53.3-1.6.91-2.13,1.21.62-1.5,1.4-2.92,2.34-4.24-.74.44-1.47.88-2.23,1.25.64-1.45,1.55-2.77,2.37-4.12-.52.3-1.56.92-2.09,1.23.53-.97,1.05-1.94,1.57-2.9-.39.09-1.19.27-1.58.36.62-1.44,1.53-2.71,2.43-3.98-.8.49-1.59.99-2.36,1.49.52-1.23,1.11-2.44,1.51-3.72-.4.28-1.18.84-1.58,1.11.16-1.83,1.55-3.11,2.5-4.56-.23.06-.67.17-.9.23-.63.6-1.32,1.15-2.04,1.61.35-1.73,1.36-3.19,2.45-4.55-.8.32-1.58.66-2.35,1.01.36-.95.75-1.88,1.15-2.82.21.23.64.7.86.93,1.39-1.41,2.88-2.73,4.46-3.94-.28,2.25-2.06,3.72-3.52,5.27-.12.54-.24,1.08-.34,1.64,1.37-1.14,2.33-2.94,4.19-3.36-.69,2.79-2.52,5.07-4.07,7.43,1.12-1.15,2.36-2.17,3.81-2.9ZM49.19,26.82c2.16-.94,4.39-1.97,6.82-1.92-1.37,1.92-4.09,1.71-5.76,3.23-1.1.87-1.76,2.12-2.23,3.41.54-.47,1.05-.98,1.54-1.51.76-.38,1.53-.73,2.33-1.05-.65,3.22-3.29,5.39-5.62,7.46.12-.44.37-1.31.49-1.75-.44.06-1.32.18-1.75.24.84-1.45,1.68-2.91,2.28-4.48-.58.47-1.76,1.39-2.35,1.85.5-1.77,1.66-3.25,2.24-4.97-.45.34-1.35,1.03-1.8,1.37.05-1.79,1.64-2.72,2.78-3.81-.78.18-1.56.36-2.33.55.61-.71,1.25-1.4,1.93-2.06-.06-.32-.19-.98-.25-1.3,1.22-.89,2.37-1.97,3.93-2.22-2.64-.02-5.54.73-7.1,3.01-.21-.04-.63-.13-.85-.18.27-.91.5-1.84.64-2.78-1.68,1.83-.74,4.47-2.03,6.43-.63-1.27-1.19-2.56-1.66-3.88.06.45.13.9.2,1.36.1,2.11,1.31,3.99,1.37,6.12-1.15-.92-1.64-2.31-2.45-3.48-.04,2.47,1.6,4.43,2.14,6.74-.41-.37-1.23-1.11-1.64-1.48-.17,1.41.42,2.68,1.22,3.81-.61-.62-1.24-1.22-1.86-1.79-.12,2.14,1.84,3.61,2.17,5.67-1.05-.64-1.81-1.61-2.7-2.43.41,1.81,1.78,3.16,2.34,4.92-.69-.55-1.29-1.22-1.89-1.86-.13.25-.39.74-.52.99-1.87-2.13-3.8-4.7-3.09-7.73.77.82,1.53,1.67,2.44,2.36-1-2.58-3.28-5.08-1.97-8.01,1,1.26,1.72,2.72,2.83,3.9-.32-1.89-1.48-3.45-2.19-5.19-.66-1.74-.12-3.6.66-5.19.31.27.93.81,1.23,1.08.06-2.27.98-4.55,2.97-5.79.02.61.06,1.84.09,2.46,1.09-2.39,2.86-5.02,5.78-5.13-.41.75-.82,1.49-1.23,2.24,1.92-.79,3.88-1.61,6-1.66l-.03.87c-1.13.24-2.18.71-2.77,1.74,1.11-.36,2.21-.76,3.33-1.12,1.76.46,3.52,1.05,4.88,2.33-.89.58-1.89.9-2.91,1.1,1.79.18,4.45.2,5.26,2.1-3.09,2.89-8.54,1.49-10.91,5.43Z"/><path class="cls-1" d="M81.42,13.97C72.48,5.01,60.35,0,47.7,0c-12.66-.01-24.79,5.01-33.73,13.97C5.01,22.91,0,35.04,0,47.69c-.01,12.66,5.01,24.79,13.97,33.73,8.94,8.96,21.07,13.98,33.73,13.97,12.65,0,24.78-5.01,33.72-13.97,8.96-8.94,13.98-21.07,13.97-33.73.01-12.65-5.01-24.78-13.97-33.72ZM76.6,76.6c-7.66,7.68-18.06,11.99-28.9,11.97-10.85.02-21.25-4.29-28.91-11.97-7.68-7.66-11.99-18.06-11.97-28.91-.02-10.84,4.29-21.24,11.97-28.9,7.66-7.68,18.06-11.99,28.91-11.97,10.84-.02,21.24,4.29,28.9,11.97,7.68,7.66,11.99,18.06,11.97,28.9.02,10.85-4.29,21.25-11.97,28.91Z"/></symbol><symbol id="New_Symbol_6" viewBox="0 0 112.4 97.44"><path class="cls-1" d="M102.71,38.84c-4.62-4.63-10.5-7.78-16.91-9.06-.76-7.59-4.13-14.69-9.54-20.09C70.07,3.48,61.64,0,52.86,0c-8.77-.01-17.2,3.48-23.4,9.69-6.21,6.2-9.7,14.62-9.69,23.4,0,.32.01.64.01.95-3.76,1.65-7.19,4-10.09,6.91C3.47,47.15-.02,55.57,0,64.35c-.02,8.78,3.47,17.2,9.69,23.4,6.2,6.22,14.62,9.71,23.4,9.69,8.78.02,17.2-3.47,23.4-9.69.27-.27.53-.54.79-.81,6.06,5.42,13.9,8.41,22.03,8.39,8.78.02,17.2-3.47,23.4-9.69,6.21-6.2,9.7-14.62,9.69-23.4.01-8.78-3.48-17.2-9.69-23.4ZM59.14,43.94c.28-.3.57-.6.86-.89,5.1-5.12,12.04-7.99,19.27-7.98.25,0,.5,0,.74.01-.45,6.55-3.26,12.72-7.91,17.36-1.96,1.96-4.21,3.62-6.66,4.9-1.06-4.89-3.21-9.47-6.3-13.4ZM59.86,59.51c-2.3.61-4.66.92-7.03.92-.25,0-.5-.01-.75-.01.28-4.03,1.45-7.93,3.42-11.45,2.18,3.17,3.67,6.76,4.36,10.54ZM33.55,13.9c5.11-5.12,12.05-7.99,19.28-7.98,7.22-.01,14.16,2.86,19.27,7.98,4.13,4.13,6.83,9.47,7.68,15.25h-.47c-8.78-.01-17.2,3.48-23.4,9.69-.27.27-.53.54-.79.81-6.06-5.41-13.9-8.4-22.03-8.39-2.52-.01-5.04.28-7.5.85.26-6.86,3.11-13.36,7.96-18.21ZM51.47,44.34c-2.96,4.6-4.73,9.85-5.16,15.3-4.83-1.18-9.24-3.67-12.76-7.2-3.91-3.9-6.54-8.91-7.54-14.35,2.3-.61,4.66-.92,7.04-.91,6.82-.01,13.39,2.55,18.42,7.16ZM52.32,83.7c-5.11,5.12-12.04,7.99-19.27,7.98-7.23.01-14.17-2.86-19.27-7.98-5.12-5.1-7.99-12.04-7.98-19.27-.01-7.23,2.86-14.17,7.98-19.27,1.98-1.99,4.26-3.66,6.76-4.95,1.35,6.17,4.45,11.82,8.92,16.28,4.62,4.63,10.51,7.78,16.92,9.06.62,6.25,3.02,12.2,6.9,17.14-.31.34-.63.68-.96,1.01ZM56.82,77.78c-2.39-3.46-3.94-7.43-4.53-11.6.19.01.38.01.57.01,2.5,0,4.99-.28,7.43-.84-.14,4.36-1.34,8.62-3.47,12.43ZM98.54,81.59c-5.11,5.12-12.04,7.99-19.27,7.98-6.83.01-13.41-2.55-18.43-7.17,3.49-5.37,5.35-11.64,5.34-18.05,0-.32,0-.63-.01-.95,3.77-1.65,7.19-3.99,10.09-6.91,5.54-5.52,8.94-12.83,9.58-20.62,4.81,1.19,9.2,3.67,12.7,7.18,5.12,5.11,7.99,12.04,7.98,19.27.01,7.23-2.86,14.17-7.98,19.27Z"/></symbol></defs><g id="Logo_Main"><path class="cls-1" d="M306.81,81.78h42.49c2.2,0,3.52.49,3.98,1.48.15.53-.13,1.38-.85,2.56-.72,1.18-1.04,2.22-.97,3.12.16,1.96.95,4.55,2.39,7.73,1.44,3.18,2.16,5.53,2.16,7.04,0,.91-.19,1.82-.57,2.73-.83,2.05-2.54,3.64-5.11,4.77-3.79,1.67-5.98,2.77-6.59,3.29,4.7,4.17,7.88,7.03,9.29,9.47,2.29,3.91,3.84,8.71,4.65,14.38.81,5.67,1.27,11.7.89,17.07-.42,5.85-.88,13.02-4.93,18-4.58,5.5-9.59,6.95-14.72,5.54-10.41-3.19-20.23-6.93-29.47-12.81-2.04-1.33-3.17-2.94-3.51-4.66-.17-.82.03-1.51.62-2.12.6-.61,1.2-1.24,1.79-1.89,1.07-1.61,1.77-6.59,2.02-14.81.08-2.6.18-6.24.22-10.78.05-5.52,0-9.14-.03-10.7-.14-6.06.07-12.49,0-18.63-.08-6.44-.91-11.1-2.27-13.75-.3-.61-1.1-1.6-2.39-2.84-1.02-.98-1.55-1.9-1.48-2.73.08-.97.87-1.48,2.39-1.48ZM324.52,115.18c1.66-2.5,4.07-4.75,7.23-6.7,4.05-2.5,6.51-4.13,7.34-4.89,2.03-1.89,3.05-3.98,3.05-6.25,0-1.21-.3-2.35-.9-3.41-1.13-2.05-3.28-3.07-6.44-3.07-2.26,0-4.26.49-5.99,1.48-2.11,1.2-3.57,2.78-4.4,4.66-.67,1.51-1.07,3.81-1.24,6.82-.27,4.74.15,8.56,1.35,11.36ZM322.09,139.42c-.33,5.76.41,10.99,2.19,15.82,1.79,4.84,4.1,7.81,7.05,8.65,2.95.84,5.66-.73,8.08-5.08,2.7-4.85,3.99-11.65,4.23-17.04.29-6.77-.28-12.47-2.06-16.66-1.78-4.19-4.43-5.48-7.45-5.48s-5.53,1.44-7.95,5.31c-2.42,3.88-3.76,8.63-4.1,14.49Z"/><path class="cls-1" d="M378.61,120.52c.09,11.22-2.9,50.94,12.31,54.64,2.43.59,4.55-.69,6.06-4,1.51-3.31,2.22-7.74,2.16-13.27-.03-2.29-.17-4.67-.43-7.1-.91-5.36-1.9-15.2-5.8-16.38-.41-.12-1.37.82-2.27,2.49-.89,1.67-1.7,2.33-2.39,1.98-.98-.5-1.74-1.85-1.83-3.67-.08-1.7.07-3.64.07-5.39,0-5.02.11-7.32.41-7.7,1.06-1.21,2.81-1.86,5.23-1.93,3.02-.08,5.94,1.28,8.61,5.81,2.13,3.61,3.91,8.94,5.44,16.06,1.06,4.93,2.28,10.21,3.43,15.34,1.24,5.52,1.85,10.11,1.91,13.57.07,3.96-.5,7.36-1.76,10.16-1.39,3.11-4.73,4.42-10.02,4.47-10.69,0-21.26-.41-31.91-1.36-2.64-.27-3.99-.45-4.07-.46-1.46-.46-2.38-1.35-2.79-2.71-.14-.42-.2-.78-.18-1.09.04-.71.7-1.88,1.97-3.63,1.27-1.75,2.06-3.58,2.37-5.42,2.48-16.64,3.15-34.23,3.02-50.74-.05-5.96-.24-12.19-.45-18.18-.23-6.29-1.14-11.21-2.5-14.54-.15-.45-.61-1.04-1.36-1.76-.76-.72-1.14-1.34-1.14-1.87,0-.23.07-.53.23-.91.38-.76,1.36-1.14,2.95-1.14h21.13c2.5,0,3.86,1.34,4.2,3.86.4,2.91-.23,4.43-2.05,4.43-.53,0-1.1-.3-1.7-.91-.61-.61-1.18-.95-1.7-1.02-2.88-.23-4.58.8-5.11,3.07-2.38,9.52-2.12,19.64-2.04,29.31Z"/><path class="cls-1" d="M422.69,81.78h24.65c3.71,0,6.44.72,8.18,2.16,1.21.99,2.2,2.69,2.95,5.11,2.7,8.35,4.83,16.93,7.04,25.34,4.56,17.34,4.78,36.86,5.07,54.85,0,1.44-.03,2.67-.08,3.71-.31,5.84-2.12,8.06-5.33,8.39-5.41.54-8.09.78-13.58,1.22-1.62.13-2.56-.43-2.81-1.92-.25-1.48.18-2.9,1.3-4.12,1.69-1.77,2.68-3.06,2.97-3.75,3.09-7.89,3.81-16.37,3.92-24.51.1-7.75-.09-16.13-2.46-23.73-2.19-7.04-6.29-9.25-11.33-9.12-3.98.1-7.72,1.89-11.06,5-6.19,5.76-5.85,15.23-5.55,22.65.25,6.06.92,12.69,2.62,18.76,1.5,5.33,3.96,9.59,7.33,12.68,1.98,1.86,2.97,2.73,3.04,2.82.93,1.06,1.35,2.29,1.18,3.52-.24,1.79-1.48,2.63-3.62,2.78-5.78.41-8.86.64-15.01,1.05-5.02.34-7.62-1.68-7.74-8.96-.01-.79.01-1.67.07-2.63.82-10.27,1.6-20.64,2.75-30.77.79-6.96,1.6-14.15,3.19-21.06,1.14-4.96,2.41-10.04,3.52-15.05,1.04-4.68,1.58-8.7,1.7-11.7.18-4.35-1.4-6.59-4.66-6.59-1.59,0-2.64.73-3.07,2.16-.47,1.56-.27,2.73.57,3.41.45.3.65.83.68,1.48.04.65-.04,1.21-.34,1.59-1.21,1.29-2.73,1.06-4.54-.68-1.82-1.74-2.73-3.6-2.73-5.57,0-5.68,3.71-8.52,11.13-8.52ZM431.56,111.44c6.15-3.6,12.23-7.01,19.66-6.82.15-3.64-.45-6.68-1.82-9.15-1.36-2.46-3.45-3.69-6.25-3.69-3.71,0-6.81,2.53-9.09,7.5-1.92,4.18-2.73,8.29-2.5,12.16Z"/><path class="cls-1" d="M483.59,81.78h31.13c2.2,0,3.41.21,3.64.62.23.42.34.78.34,1.08,0,.45-.28,1.16-.85,2.1-.57.95-.83,1.75-.85,2.33-.07,1.75.66,4.6,2.44,8.35,1.78,3.75,2.67,6.69,2.67,8.8,0,.99-.11,1.97-.34,2.95-.53,1.59-1.7,2.64-3.41,3.18-1.13.36-3.47.71-6.93.91-3.08.18-5.13.21-6.02.11-2.38-.25-4.13-1.27-5.11-2.9-.98-1.63-1.56-3.84-1.82-6.53-.13-1.42.16-2.43.91-2.84,1-.55,2.12-.15,3.18,1.14,1.06,1.29,2.24,1.76,3.41,1.59,1.44-.21,2.27-1.48,2.27-3.98,0-1.74-.34-3.22-1.02-4.43-1.52-2.95-3.56-4.39-6.13-4.32-2.5.07-4.69,1.59-6.59,4.43-1.71,2.57-2.97,5.96-3.64,10.11-.85,5.28-1.09,10.78-1.25,15.91-.34,10.72-1.02,22.74,2.06,33.43,2.13,7.39,5.12,10.19,9.01,9.24,4.18-1.02,7.22-4.53,8.88-10.7.67-2.53,1.15-7.71,1.44-14.97.14-3.42,1.16-5.06,3.09-5.12,1.31-.04,2.2.75,2.69,2.42,2.06,6.74,4.15,13.49,4.97,20.52.13,1.76.14,3.41.04,4.96-.24,3.48-1.15,6.2-2.75,8.35-2.72,3.58-6.91,5.79-12.15,6.78-6.32,1.15-12.64,2.28-19.01,3.21-6.55.97-10.18-1.19-11.42-8.76-1.35-8.25-1.46-16.75-1.11-24.94.37-8.54,2-17.31,3.37-25.91.23-2.27.96-7.23,2.27-14.77.96-5.51,1.48-9.47,1.48-11.82,0-1.14-.08-2.08-.23-2.84-.15-.76-.62-1.72-1.42-2.9-.79-1.17-1.19-2.06-1.19-2.67,0-.3.11-.61.34-.91.45-.83,1.66-1.25,3.64-1.25Z"/><path class="cls-1" d="M555.85,117.46c.45.38,1.16.63,2.05.68,2.14.13,4.37.21,6.53.4,2.16.19,4.09,1.23,5.79,3.12,1.7,1.89,2.59,4.9,2.63,9.28.01,1.15-.07,2.97-.24,5.46-.17,2.5-.25,4.41-.23,5.71.01,1.37.1,2.59.26,3.65.57,4.68,2.34,6.77,5.18,6.28,2.33-.4,3.61-1.85,3.95-4,.18-1.16-.13-2.14-1.05-2.9-.16-.18-.88-.35-2.17-.52-.98-.14-1.49-.57-1.49-1.26-.02-1.95,1.37-3,4.06-3.24,2.7-.24,4.59.31,5.59,1.67.54.84.95,2.41,1.18,4.69.37,3.68-.22,6.61-1.68,8.63-1.46,2.01-3.32,3.29-5.59,3.76-2.23.46-3.34.7-5.57,1.17-2.73.58-4.56.77-5.47.54-1.37-.35-3.01-2.35-4.39-6.02-1.32-3.5-2.53-7.44-3.85-11.33-1.32-3.89-2.53-8.12-3.95-11.85-1.92-5.05-4.86-7.69-7.89-7.68-3.34.01-5,3.13-4.98,10.34,0,.95.08,2.59.24,4.94.41,5.93.54,12.43,2.91,18.03.54,1.22,1.62,2.46,3.23,3.68,1.08.94,1.48,1.89,1.28,2.84-.25,1.16-1.56,2.05-4.02,2.64-6,1.43-11.99,2.87-18,4.28-2.78.64-4.16.36-4.27-.82-.1-1.1.72-2.71,2.47-4.82,1.74-2.1,2.72-4.51,3.03-7.19.67-5.72,1.22-11.7,1.4-17.53-.13-10.28-.15-20.54-.57-30.79-.26-6.41.02-15.22-2.84-21.25-.15-.23-.83-.87-2.05-1.93-.76-.68-1.14-1.29-1.14-1.82,0-1.67,1.29-2.5,3.86-2.5h13.41c2.12,0,3.45.38,3.98,1.14.23.38.34.8.34,1.25,0,.61-.51,1.59-1.53,2.95s-1.65,2.42-1.87,3.18c-.99,3.48-1.4,7.35-1.36,11.47.04,3.9.22,6.75.68,8.41.74,2.64,2.22,3.95,4.32,3.98,3.14.04,6.36-3.94,9.54-12.04.91-2.35,1.76-6.19,2.5-11.47.62-4.45,1.29-7.06,2.04-7.78.76-.72,2.31-1.08,4.66-1.08h11.7c2.27,0,3.49.77,3.64,2.27.08.83-.65,1.77-2.16,2.73-2.16,1.37-3.52,2.27-3.98,2.73-2.2,2.42-4.2,6.15-6.02,11.19-1.82,5.04-3.9,8.73-6.25,11.08-3.18,3.18-5.79,5.08-7.84,5.68Z"/><path class="cls-1" d="M620.38,81.78h21.13c3.86,0,6.93,1.06,9.2,3.18,4.66,4.5,7.5,10.33,10.11,16.02,2.65,5.79,4.53,12.75,5.57,19.09,1.22,7.45,2.76,10.59,3.07,12.76.6,4.17-1.16,7.15-6.21,10.86-3.75,2.75-9.21,4.91-15.92,5.39-9,.73-17.94,1.68-26.89,2.84-2.86.39-4.48-.12-4.87-1.45-.23-.56.26-1.58,1.45-2.95,1.42-1.64,2.36-3.14,2.8-4.51.96-3.08,1.43-6.18,1.41-10.21.02,3.98-.28,3.76-.4-12.49-.04-5.57.04-11.25,0-16.81-.04-5.79-.8-10.53-2.16-14.09-.23-.68-.91-1.67-2.05-2.84-.95-.98-1.48-1.82-1.48-2.5,0-.3.11-.64.34-1.02.38-.76,1.02-1.17,1.93-1.25h2.95ZM640.1,91.89c-9.01.76-8.59,17.31-8.7,23.63-.03,2.01.09,4.1.23,6.13.59,8.86,1.5,11.68,2.75,14.06,1.98,3.77,5.22,5.67,9.71,5.41,4.25-.25,7.01-2.57,8.23-6.13.66-1.92,1.2-4.42.79-13.68-.3-6.68-1.22-13.62-3.84-20-2.61-6.33-5.77-9.72-9.15-9.43Z"/><path class="cls-1" d="M711.15,81.78c2.73,0,4.09.76,4.09,2.27,0,.45-.25,1.33-.74,2.61-.49,1.29-.78,2.27-.85,2.95-.48,9.42,1.96,19.04,3.86,28.18,1.06,4.77,2.72,8.85,4.31,12.42,1.59,3.56,2.52,6.28,2.85,8.48.4,2.66.07,4.96-.95,6.91-1.82,3.49-6.11,5.06-13.54,4.23-6.53-.73-9.91-1.01-17.14-1.37-3.67-.18-6.76-.56-9-1.23-2.97-.89-5.63-2.49-7.78-4.3-2.16-1.81-3.42-3.97-3.82-6.31-.33-1.96-.06-4.1.71-8.21.52-2.79,1.22-6.92,2.1-11.17.99-4.8,1.88-9.9,2.84-14.88.85-4.37,1.25-7.65,1.25-9.77,0-1.44-.15-2.69-.45-3.75-.15-.53-.58-1.41-1.25-2.61-.53-.97-.8-1.74-.8-2.27,0-1.44,1.48-2.16,4.43-2.16h29.88ZM684.93,122.33c.05,8.78,5.92,17.71,15.23,18.83,8.71,1.04,9.76-7.84,8.23-14.34-.28-1.21-.51-2.74-.84-4.39-.6-7.34-.68-31.1-10.94-31.78-3.18-.21-6.26,3.25-8.41,9.66-2.35,7.02-3.31,14.76-3.27,22.02Z"/><path class="cls-1" d="M732.51,81.78h32.27c2.2,0,3.52.34,3.98,1.02.15.23.23.49.23.8s-.23.83-.68,1.59c-.45.76-.74,1.38-.8,1.82-.22,1.74.35,4.13,1.48,6.93,1.22,3.02,1.82,5.49,1.82,7.39,0,.83-.08,1.67-.23,2.5-.53,3.11-2.12,4.7-4.77,4.77-4.36.14-6.54.2-10.91.34-2.43.08-3.64-.49-3.64-1.7,0-1.14.57-1.97,1.7-2.5,4.09-1.89,5.83-4.62,5.23-8.18-.31-1.82-1.1-3.3-2.39-4.43-1.29-1.14-2.77-1.63-4.43-1.48-13.45,1.47-13.01,21.99-13.07,31.36-.04,7.53,1.86,11.88,3.92,16.41,2.56,5.65,5.68,9.23,9.55,10.01,3.08.62,5.58-.35,7.34-3.03,1.51-2.29,2.26-5.4,2.24-9.15-.02-3.53-.29-6.2-.84-7.9-.89-2.78-2.61-4.11-5.01-4-2.7.13-4.82,1.99-6.27,5.29-.48,1.17-1.25,1.65-2.27,1.47-1.33-.24-1.84-1.72-1.75-4.36.05-1.41-.03-3.03.03-4.59.04-1.11.34-2.25.8-3.32.83-1.98,2.57-2.98,5.23-2.98h17.84c1.82,0,2.99.38,3.52,1.14.23.38.34.8.34,1.25,0,.61-.23,1.41-.68,2.39-.6,1.29-.99,2.11-1.14,2.49-.61,1.87-1,4.83-.92,8.67.16,7.75,1.23,14.85,2.93,22.58.15.49.72,1.77,1.72,3.86.62,1.46.81,2.59.58,3.37-.47,1.33-1.95,1.65-4.36,1.02-9.42-2.5-18.86-4.95-28.36-7.14-5.19-1.18-9.08-4.16-11.89-8.24-2.49-3.62-4.07-7.88-4.3-13.4-.27-6.64.77-13.19,1.99-19.79,1.12-6.04,2.48-12.15,2.84-18.29.08-1.36.22-3.72,0-6.59-.04-.58-.47-1.38-1.19-2.33-.72-.95-1.08-1.72-1.08-2.33,0-.53.21-1.12.63-1.76.42-.64,1.34-.97,2.78-.97Z"/><path class="cls-1" d="M310.98,331.6c-1.18,0-1.77-.43-1.77-1.28,0-.32.08-.64.24-.96s.35-.78.56-1.36c.21-.59.4-1.42.56-2.49.16-1.07.24-2.51.24-4.33,0-35.86,0-71.72.02-107.58,0-2.08-.08-3.7-.24-4.93-.16-1.23-.35-2.2-.57-2.91-.22-.72-.41-1.3-.57-1.76-.16-.46-.24-.86-.24-1.19,0-.87.6-1.02,1.8-.49,4.57,2.02,6.85,2.91,11.39,4.51,1.19.42,1.78,1.02,1.78,1.83,0,.31-.08.61-.25.92-.16.31-.35.72-.57,1.23-.22.51-.41,1.27-.57,2.31-.17,1.04-.25,2.51-.26,4.45-.1,34.37-.15,68.75-.15,103.12,0,.96.43,1.44,1.28,1.44h35.32c1.82,0,2.94-.11,3.37-.32.43-.21,1.07-.32,1.93-.32.75,0,1.12.59,1.12,1.77v7.06c0,.86-.43,1.28-1.28,1.28h-53.14ZM331.68,313.46c-1.18,0-1.77-.37-1.77-1.12,0-.32.08-.67.24-1.04.16-.37.35-.86.56-1.44.21-.59.4-1.42.56-2.49.16-1.07.24-2.51.24-4.33,0-27.65.1-55.3.21-82.95,0-1.86-.07-3.31-.22-4.41-.16-1.1-.34-1.95-.55-2.57-.21-.62-.4-1.14-.56-1.54-.16-.4-.24-.75-.24-1.05,0-.8.6-1.01,1.78-.67,10.49,2.74,20.89,4.68,31.64,6,.96.1,1.44.57,1.43,1.42-.01,2.43-.02,3.66-.03,6.16,0,1.07-.44,1.56-1.29,1.48-.75-.08-1.36-.22-1.84-.42-.48-.2-1.57-.4-3.28-.6-5.51-.67-8.27-1.08-13.79-2.09-.96-.18-1.45.14-1.45.98,0,1.32-.01,1.99-.02,3.33,0,.96.47,1.53,1.44,1.69,7.91,1.28,15.89,2.19,23.88,2.79.85.07,1.28.5,1.27,1.29,0,1.98-.01,2.97-.02,4.96,0,.9-.43,1.33-1.29,1.28-7.98-.47-15.96-1.18-23.89-2.2-.96-.12-1.45.25-1.45,1.13-.11,21.88-.18,43.76-.18,65.65,0,.86.48,1.28,1.44,1.28h14.45c1.82,0,2.94-.08,3.37-.24.43-.16,1.07-.24,1.93-.24.75,0,1.12.59,1.12,1.77v6.9c0,.86-.43,1.28-1.28,1.28h-32.43Z"/><path class="cls-1" d="M411.12,217.59c7.06-.02,12.38,1.81,15.9,5.09,3.52,3.28,5.26,7.48,5.27,12.69,0,1.61-.16,3.36-.47,5.24-.32,1.88-.9,3.8-1.75,5.76-8.76,22.6-16.33,45.61-24.13,68.56-1.51,4.6-3.81,8.53-6.92,11.78-3.11,3.26-6.98,4.89-11.59,4.89h-12.88c-1.18,0-1.77-.43-1.77-1.28,0-.32.08-.64.24-.96.16-.32.35-.78.56-1.36.21-.59.4-1.39.56-2.41.16-1.01.24-2.43.24-4.25,0-31.65.05-63.29.18-94.94,0-1.66-.07-2.99-.22-3.97-.16-.98-.34-1.75-.55-2.29-.21-.55-.4-.99-.55-1.34-.16-.35-.24-.67-.24-.96,0-.77.59-1.11,1.76-1.03,12.09.8,24.24.83,36.35.78ZM385.95,322.13h1.12c3,0,5.62-3.26,7.87-9.79,7.35-22.11,14.55-44.24,22.8-66.03.85-2.42,1.5-4.6,1.93-6.55.43-1.95.75-3.64.8-4.92.11-2.72-.88-4.95-2.65-6.29-1.76-1.33-4.46-2.03-8.09-2.06-7.46-.07-14.92-.19-22.38-.46-.85-.03-1.28.34-1.28,1.12-.09,31.66-.13,63.32-.13,94.97ZM442.13,277.98c-.32.86-.96,1.28-1.93,1.28h-12.36c-.64,0-.96-.21-.96-.64,0-.21.16-.64.48-1.28,1.03-2.5,1.54-3.79,2.57-6.25.32-.84.96-1.25,1.92-1.25,4.94.02,7.41.03,12.35.04.64,0,.96.21.97.61,0,.31-.15.75-.47,1.39-1.03,2.44-1.54,3.66-2.57,6.1ZM486.3,209.74c1.04-.22,1.58.07,1.61.9-.1.52-.16.79-.26,1.31-12.02,36.85-25.82,72.62-40.28,108.57-.11.11-.16.37-.16.8,0,.54.37.8,1.12.8h73.75c1.71,0,2.81-.11,3.29-.32.48-.21,1.1-.32,1.85-.32s1.12.59,1.12,1.77v7.06c0,.86-.43,1.28-1.28,1.28h-93.92c-1.07,0-1.6-.43-1.6-1.28,0-.11.11-.48.32-1.12,14.09-35.21,28.84-70.19,41.03-106.11,0-.25-.01-.38-.02-.63-.02-.53-.33-.74-.95-.63-6.85,1.12-13.66,2.12-20.54,3-1.64.19-2.69.38-3.15.58-.46.2-1.05.33-1.77.41-.82.08-1.24-.42-1.25-1.5-.02-2.54-.03-3.82-.05-6.41,0-.9.45-1.4,1.37-1.5,13.4-1.57,26.57-3.92,39.78-6.66ZM494.79,313.46c-1.18,0-1.77-.37-1.77-1.12,0-.32.08-.67.24-1.04.16-.37.35-.86.56-1.44.21-.59.4-1.42.56-2.49.16-1.07.24-2.51.24-4.33,0-28.02-.97-55.91-2.08-83.91-.08-1.9-.22-3.36-.42-4.41-.2-1.05-.42-1.84-.66-2.38-.24-.54-.44-.97-.61-1.3-.17-.33-.27-.66-.28-.97-.04-.83.52-1.36,1.68-1.61,10.85-2.38,21.69-4.79,32.56-7.08.93-.19,1.41.18,1.43,1.14.07,2.77.1,4.24.17,7.31.03,1.31-.36,2.06-1.16,2.21-.92.17-1.61.21-2.07.11-.46-.1-1.66.04-3.58.42-5.83,1.13-8.67,1.71-14.27,2.83-.87.18-1.28.72-1.25,1.65.06,1.47.09,2.21.14,3.71.04,1.07.49,1.54,1.36,1.38,8.32-1.49,16.64-2.94,24.97-4.34,1.04-.17,1.57.27,1.59,1.34.03,2.64.05,3.99.08,6.71.02,1.24-.49,1.93-1.52,2.06-8.27,1.1-16.53,2.27-24.78,3.45-.87.12-1.28.68-1.24,1.68.85,23.25,1.49,46.39,1.49,69.66,0,.86.43,1.28,1.28,1.28h14.61c1.71,0,2.81-.08,3.29-.24.48-.16,1.1-.24,1.85-.24s1.12.59,1.12,1.77v6.9c0,.86-.43,1.28-1.28,1.28h-32.27Z"/><path class="cls-1" d="M535.89,330.32c0-.32.08-.64.24-.96.16-.32.35-.78.56-1.36.21-.59.4-1.42.56-2.49.16-1.07.24-2.51.24-4.33,0-36.85-.12-73.7-.3-110.56-.01-2.17-.11-3.8-.3-4.97-.19-1.17-.4-2.03-.65-2.62-.25-.59-.46-1.06-.65-1.41-.18-.36-.28-.7-.28-1.03,0-.88.65-1.43,1.99-1.68,12.43-2.32,24.8-4.88,37.17-7.54,4.08-.88,7.3-.5,9.67,1.5,2.37,2,3.54,5.58,3.49,11.21-.05,5.63-1.28,10.56-3.71,14.13-2.43,3.57-5.68,5.61-9.75,6.14-7.88,1.03-15.76,2.06-23.64,3.04-.87.11-1.31.75-1.31,1.93-.12,30.62-.18,61.23-.18,91.84,0,1.82.08,3.27.24,4.33.16,1.07.35,1.9.56,2.49.21.59.4,1.04.56,1.36.16.32.24.64.24.96,0,.86-.59,1.28-1.77,1.28h-11.24c-1.18,0-1.77-.43-1.77-1.28ZM549.3,212.98c0,1.23.43,1.79,1.3,1.65,7.64-1.25,15.27-2.57,22.89-3.9,2.26-.39,3.39-2.04,3.42-4.8.02-2.75-1.09-3.82-3.34-3.38-7.64,1.5-15.27,2.98-22.93,4.38-.88.16-1.32.75-1.32,1.81,0,1.66-.01,2.51-.02,4.23Z"/><path class="cls-1" d="M590.15,330.32c0-.32.08-.64.24-.96.16-.32.35-.78.56-1.36.21-.59.4-1.42.56-2.49.16-1.07.24-2.51.24-4.33,0-40.25.23-80.49.54-120.74.02-2.48-.04-4.31-.19-5.62-.15-1.3-.32-2.25-.53-2.9-.21-.64-.39-1.16-.54-1.54-.16-.39-.23-.76-.23-1.11,0-.93.6-1.49,1.77-1.73,11.81-2.45,23.7-4.62,35.67-6.16,4.01-.51,7.21.21,9.6,2.58,2.38,2.37,3.57,6.31,3.57,12.52s-1.2,11.65-3.6,15.48c-2.4,3.84-5.62,5.92-9.65,6.25-7.76.62-15.52,1.41-23.26,2.29-.85.1-1.28.84-1.29,2.25-.18,32.8-.3,65.6-.3,98.4,0,1.82.08,3.27.24,4.33.16,1.07.35,1.9.56,2.49.21.59.4,1.04.56,1.36.16.32.24.64.24.96,0,.86-.59,1.28-1.77,1.28h-11.24c-1.18,0-1.77-.43-1.77-1.28ZM603.73,203.52c0,1.43.41,2.1,1.26,1.97,7.45-1.14,14.92-2.16,22.41-2.99,2.23-.25,3.34-2.02,3.35-5.11,0-3.08-1.1-4.37-3.33-4.09-7.49.94-14.94,2.08-22.38,3.36-.85.15-1.27.8-1.28,2-.01,1.89-.02,2.87-.03,4.87Z"/><path class="cls-1" d="M646.18,331.6c-1.18,0-1.77-.43-1.77-1.28,0-.32.08-.64.24-.96.16-.32.35-.78.56-1.36.21-.59.4-1.42.56-2.49.16-1.07.24-2.51.24-4.33,0-42.69.01-85.38.03-128.08,0-2.69-.08-4.65-.24-6.05-.16-1.4-.34-2.41-.56-3.11-.21-.7-.4-1.24-.56-1.66-.16-.42-.24-.8-.24-1.15,0-.93.58-1.4,1.76-1.48,10.46-.6,20.98-.66,31.45-.47.84.01,1.26.51,1.27,1.58,0,3.07.01,4.83.02,8.66,0,1.63-.37,2.49-1.1,2.47-.85-.02-1.48-.15-1.9-.4-.42-.24-1.53-.39-3.33-.42-5.46-.09-8.21-.11-13.74-.09-.86,0-1.29.61-1.29,1.89,0,2.01,0,3.06,0,5.21,0,1.54.43,2.33,1.29,2.33,7.91,0,15.83.09,23.74.34.95.03,1.43.74,1.43,2.15,0,3.5.01,5.32.02,9.01,0,1.68-.47,2.51-1.42,2.49-7.92-.18-15.85-.23-23.77-.2-.86,0-1.29.77-1.29,2.3,0,34.72,0,69.44,0,104.16,0,.96.43,1.44,1.28,1.44h14.61c1.71,0,2.81-.11,3.29-.32.48-.21,1.1-.32,1.85-.32s1.12.59,1.12,1.77v7.06c0,.86-.43,1.28-1.28,1.28h-32.27ZM688.72,331.6c-1.18,0-1.77-.43-1.77-1.28,0-.32.08-.64.24-.96.16-.32.35-.78.56-1.36.21-.59.4-1.42.56-2.49.16-1.07.24-2.51.24-4.33,0-42.66-.13-85.32-.29-127.97-.01-2.7-.1-4.7-.26-6.14-.16-1.44-.35-2.5-.57-3.24-.21-.74-.4-1.32-.56-1.77-.16-.45-.24-.85-.24-1.22,0-.97.57-1.39,1.72-1.35,4.46.19,6.69.31,11.14.63,1.15.08,1.73.59,1.74,1.56,0,.37-.07.77-.22,1.2-.15.43-.36,1-.61,1.71-.25.71-.46,1.75-.6,3.17-.15,1.42-.21,3.41-.19,6.1.28,42.27.5,84.54.5,126.82,0,.96.48,1.44,1.44,1.44h14.61c1.71,0,2.81-.11,3.29-.32.48-.21,1.1-.32,1.85-.32.86,0,1.28.59,1.28,1.77v7.06c0,.86-.43,1.28-1.28,1.28h-32.59ZM719.82,182.25c1.16.16,1.75.71,1.77,1.69,0,.37-.07.76-.22,1.18-.15.42-.33.98-.53,1.68-.2.7-.37,1.72-.51,3.12-.14,1.4-.19,3.35-.16,5.99.4,35.76.83,71.52.83,107.29,0,1.82.08,3.27.24,4.33.16,1.07.35,1.9.56,2.49.21.59.4,1.07.56,1.44.16.38.24.72.24,1.04,0,.75-.59,1.12-1.77,1.12h-11.24c-1.18,0-1.77-.37-1.77-1.12,0-.32.08-.67.24-1.04.16-.37.35-.86.56-1.44.21-.59.4-1.42.56-2.49.16-1.07.24-2.51.24-4.33,0-36.18-.35-72.36-.67-108.54-.02-2.67-.12-4.67-.3-6.11-.17-1.44-.37-2.52-.58-3.27-.22-.75-.41-1.35-.57-1.82-.16-.46-.25-.88-.25-1.24-.01-.98.56-1.39,1.71-1.27,4.4.44,6.61.7,11.04,1.32Z"/><path class="cls-1" d="M739.98,185.59c1.19.25,1.79.83,1.81,1.79,0,.36-.07.74-.23,1.13-.16.4-.34.92-.54,1.58-.21.66-.38,1.64-.52,2.97-.14,1.34-.2,3.22-.17,5.75.04,3.31.06,5.05.11,8.64.05,4.36.64,8.52,1.75,12.24,4.68,16.27,9.03,32.78,15.36,48.51-.22-21.94-.35-43.88-.54-65.82-.02-2.42-.12-4.25-.3-5.61-.18-1.35-.38-2.38-.61-3.12-.23-.74-.43-1.34-.6-1.8-.17-.46-.26-.87-.26-1.22-.01-.93.59-1.21,1.82-.87,4.67,1.3,7.03,2,11.81,3.55,1.25.4,1.88,1.04,1.88,1.92,0,.33-.09.67-.26,1.02-.17.35-.37.8-.6,1.38-.23.58-.42,1.46-.59,2.66-.17,1.21-.25,2.92-.25,5.23.05,38.54.09,77.09.09,115.63,0,1.82.08,3.27.24,4.33.16,1.07.35,1.9.56,2.49.21.59.4,1.04.56,1.36.16.32.24.64.24.96,0,.86-.59,1.28-1.77,1.28h-11.24c-1.18,0-1.77-.43-1.77-1.28,0-.32.08-.64.24-.96.16-.32.35-.78.56-1.36.21-.59.4-1.42.56-2.49.16-1.07.24-2.51.24-4.33v-23.92c0-2.78-.54-5.46-1.61-8.03-5.55-12.13-10.81-24.03-15.04-36.69.29,22.88.27,45.76.27,68.64,0,1.82.08,3.27.24,4.33.16,1.07.35,1.9.56,2.49.21.59.4,1.04.56,1.36.16.32.24.64.24.96,0,.86-.59,1.28-1.77,1.28h-11.24c-1.18,0-1.77-.43-1.77-1.28,0-.32.08-.64.24-.96.16-.32.35-.78.56-1.36.21-.59.4-1.42.56-2.49.16-1.07.24-2.51.24-4.33,0-41.44-.4-82.87-.9-124.31-.03-2.59-.14-4.54-.32-5.97-.18-1.42-.38-2.49-.6-3.24-.22-.75-.42-1.36-.58-1.83-.17-.46-.25-.88-.26-1.25-.02-.97.56-1.34,1.73-1.14,4.47.76,6.72,1.19,11.26,2.15Z"/><path class="cls-2" d="M568.08,176.04c157.35-32.72,203.34,5.66,203.34,5.66"/><path class="cls-2" d="M308.55,185.39s63.4,32.33,189.99,6.72"/><path class="cls-1" d="M509.22,182.94c6.79-1.11,8.92-1.75,14.59-3.13,0,1.18,0,1.79,0,3.04-1.95.46-2.88.69-4.79,1.13-.02,4.3-.03,6.79-.06,10.8-1.75.42-2.63.63-4.46,1.11.03-4,.05-6.58.09-10.92-2.02.43-3.06.65-5.38,1.1,0-1.3,0-1.94,0-3.12Z"/><path class="cls-1" d="M536.59,184.73c-2.76.68-4.14,1.03-6.9,1.71v5.73c-1.82.48-2.73.72-4.55,1.15,0-5.29,0-8.56,0-13.84,1.81-.44,2.73-.64,4.55-1.04v4.87c2.76-.64,4.14-.96,6.9-1.6,0-1.92,0-2.88,0-4.76,1.82-.4,2.73-.6,4.55-1.03,0,5.29,0,7.94,0,13.23-1.82.44-2.73.68-4.55,1.17,0-2.21,0-3.34,0-5.59Z"/><path class="cls-1" d="M543.83,175.24c5.19-1.42,7.1-2.38,13.74-3.5v2.93c-4.36.79-6.02,1.28-9.46,2.24.01.98.02,1.47.03,2.46,3.23-.85,4.81-1.28,8.76-2.04,0,1.17,0,1.76,0,2.93-3.89.77-5.48,1.15-8.74,1.94.01.99.02,1.48.03,2.46,3.49-.79,5.19-1.16,9.37-2v2.93c-6.16,1.31-8.4,1.71-13.71,2.93-.01-5.27-.02-8-.03-13.27Z"/><line class="cls-2" x1="653.16" y1="353.34" x2="771.42" y2="353.34"/><line class="cls-2" x1="308.55" y1="353.34" x2="426.8" y2="353.34"/><path class="cls-1" d="M441.05,344.86h15.17v3.09h-10.76v3.37h10.21v2.96h-10.21v3.73h10.85v3.09h-15.26v-16.24Z"/><path class="cls-1" d="M466.43,352.73l-6.32-7.87h5.3l3.57,5.05,3.57-5.05h5.3l-6.32,7.87,6.89,8.37h-5.48l-3.96-5.48-3.96,5.48h-5.48l6.89-8.37Z"/><path class="cls-1" d="M482.3,344.86h10.92c4.62,0,5.73,2.75,5.73,4.94,0,3.48-1.82,5.5-5.39,5.5h-6.85v5.8h-4.41v-16.24ZM486.72,352.34h4.73c1.36,0,2.96-.05,2.96-2.23s-1.3-2.3-2.55-2.3h-5.14v4.53Z"/><path class="cls-1" d="M503.98,344.86h15.17v3.09h-10.76v3.37h10.21v2.96h-10.21v3.73h10.85v3.09h-15.26v-16.24Z"/><path class="cls-1" d="M524.4,344.86h11.8c4.48,0,5.25,2.75,5.25,4.41,0,2-.8,3.25-2.64,3.91v.05c1.91.3,2.23,2.75,2.23,4.34,0,.8.05,2.73.84,3.53h-4.82c-.41-.71-.43-1.43-.43-3.12,0-2.27-.98-2.84-2.34-2.84h-5.48v5.96h-4.41v-16.24ZM528.82,352.05h5.85c.98,0,2.12-.55,2.12-2.07,0-1.61-1.27-2.02-2.34-2.02h-5.62v4.09Z"/><path class="cls-1" d="M546.51,344.86h4.41v16.24h-4.41v-16.24Z"/><path class="cls-1" d="M556.75,344.86h15.17v3.09h-10.76v3.37h10.21v2.96h-10.21v3.73h10.85v3.09h-15.26v-16.24Z"/><path class="cls-1" d="M590.86,344.86h4.28v16.24h-4.8l-8.85-11.33h-.05v11.33h-4.28v-16.24h5.12l8.53,11.33h.05v-11.33Z"/><path class="cls-1" d="M614.68,351c-.41-2.34-2.34-3.5-4.64-3.5-4.19,0-5.07,3.28-5.07,5.48s.89,5.48,5.07,5.48c2.11,0,4.21-1.05,4.64-3.59h4.8c-.55,4.73-4.41,6.69-9.6,6.69-5.91,0-9.6-2.55-9.6-8.57s3.68-8.57,9.6-8.57c3.93,0,8.89,1,9.55,6.6h-4.75Z"/><path class="cls-1" d="M624.32,344.86h15.17v3.09h-10.76v3.37h10.21v2.96h-10.21v3.73h10.85v3.09h-15.26v-16.24Z"/></g><g id="Mini_Logos"><use id="_4" width="112.4" height="97.44" transform="translate(951.27 964.07) scale(.72)" xlink:href="#New_Symbol_6"/><use id="_3" width="89.19" height="92.41" transform="translate(49.59 962.71) scale(.72)" xlink:href="#New_Symbol_4"/><use id="_2" width="147.56" height="96.18" transform="translate(936.53 54.15) scale(.72)" xlink:href="#New_Symbol_1"/><use id="_1" width="95.39" height="95.39" transform="translate(46.35 49.44) scale(.72)" xlink:href="#New_Symbol_5"/><rect id="Line" class="cls-3" x="20" y="20" width="1040" height="1040"/></g></svg>