<?xml version="1.0" encoding="UTF-8"?><svg id="Logo" xmlns="http://www.w3.org/2000/svg" width="1080" height="1920" xmlns:xlink="http://www.w3.org/1999/xlink" viewBox="0 0 1080 1920"><defs><style>.cls-1{fill:#a17425;}.cls-2{stroke-width:4px;}.cls-2,.cls-3{fill:none;stroke:#a17425;stroke-miterlimit:10;}.cls-3{stroke-width:5px;}</style><symbol id="New_Symbol_1" viewBox="0 0 147.56 96.18"><path class="cls-1" d="M127.11,34.35l-.05-.84-.11-.84-.12-.83-.22-.79-.22-.78-.23-.78-.33-.73-.28-.73-.39-.73-.39-.67-.9-1.34-.5-.62-.5-.61-1.12-1.12-.61-.51-.62-.5-.67-.45-.67-.44-.67-.4-.72-.39-.73-.33-.78-.28-.73-.28-.78-.23-.84-.16-.78-.17-.84-.06-.83-.11h-1.68l-.78.06-.78.11-.73.11-.78.17-.73.22-.72.23-.73.27-.67.28-.67.34-.67.34-.67.39-.61.39-.56.45-.62.44-.56.51-.55.5-.51.51-.5.55-.45.62-.44.56-.39.67-.4.62-.39.67-.28.67-.33.67-.28.73-.22.73-.17.72-.17.73-.17.78-.11.79-5.69-.06-.84-1.28-1.06-1.57-1.23-1.74-1.45-1.95-1.57-2.02-1.56-2.07-1.68-2.07-1.56-1.96-.73-.95-.61-.95-.5-.9-.4-.89-.27-.9-.23-.78-.17-.78-.05-.79v-.67l.05-.61.12-.56.11-.51.17-.44.22-.34.17-.28.22-.17.45-.22.44-.17.39-.11.45-.06h.84l.45.11.44.06.39.17.45.17.39.22.39.22.84.56.73.62.72.61.73.68.61.72.62.62.95,1.12.67.78.16.11.17.06h.34l.44-.11.51-.28.55-.34.56-.39.56-.5.56-.51,1.12-1.17.95-1.07.39-.55.28-.45.28-.34.11-.33.11-.23.06-.28v-.5l-.12-.56-.16-.62-.34-.56-.39-.61-.45-.62-.56-.56-.61-.61-.61-.56-.73-.5-.73-.51-.78-.39-.78-.39-.78-.39-.78-.23-.62-.17-.61-.11-.62-.05h-1.28l-.62.05-.61.17-.61.11-.62.23-.61.22-.62.28-.61.28-1.23.67-1.12.84-1.11.84-1.07.95-.94,1.01-.95,1.06-.84,1.06-.73,1.12-.61,1.07-.51,1.06-.55,1.4-.39,1.34-.34,1.34-.17,1.24v.61l-.05.56.05.62.06.5.05.56.12.5.11.45.17.45.44.84.67,1.17.9,1.35,1.06,1.56,1.17,1.79,1.34,1.9,1.4,2.02,1.39,2.18-7.15-.05-.11-.79-.11-.72-.17-.79-.22-.73-.22-.72-.28-.67-.28-.68-.34-.67-.39-.67-.39-.67-.39-.62-.45-.56-.44-.56-.51-.55-.5-.56-.56-.51-.56-.5-.55-.45-.62-.39-.61-.45-.67-.33-.67-.4-.67-.28-.67-.33-.73-.22-.73-.23-.72-.22-.73-.17-.78-.11-.78-.11-.78-.06h-1.62l-.84.11-.84.06-.84.17-.78.16-.78.23-.78.28-.73.28-.72.33-.73.39-.67.4-.67.44-.67.45-.62.5-.61.51-.56.56-.56.56-.5.61-.5.62-.45.67-.45.67-.39.67-.39.73-.33.73-.28.73-.28.78-.22.78-.17.79-.11.83-.12.84-.05.84-.06.84.06.84.05.84.12.84.11.84.17.78.22.79.28.78.28.73.33.72.78,1.46.45.67.45.62.5.61.5.62.56.56.56.56.61.56.62.44.67.51.67.39.67.39.73.39.72.34.73.28.78.28.78.22.78.17.84.17.84.11.84.05h1.62l.78-.05.78-.11.78-.11.73-.17.78-.23.73-.22.67-.22.72-.34.67-.28.67-.39.62-.34.61-.44.62-.4.61-.5.56-.45.5-.56.56-.5.45-.56.5-.56.45-.62.39-.61.39-.67.33-.62.34-.67.28-.73.28-.67.22-.73.22-.72.17-.79.17-.78.05-.73h9.5l.84,1.35.78,1.34.78,1.34.67,1.34.67,1.29.61,1.29.51,1.23.44,1.17.4,1.12.22,1.07.17,1.06.05.9v.44l-.05.45-.06.39-.11.39-.17.34-.17.34-.22.33-.22.28-.39.34-.4.28-.44.22-.39.17-.39.11-.4.06h-.39l-.39-.06-.44-.11-.39-.11-.4-.23-.33-.22-.39-.28-.39-.28-.34-.34-.33-.33-.67-.84-.56-.84-.5-.95-.45-1.01-.39-1.01-.28-1-.11-1.01-.06-.95-.05-.23-.06-.28-.06-.16-.16-.12h-.17l-.34.06-.56.34-.94.67-1.23.95-1.4,1.12-1.45,1.17-1.34,1.23-.67.62-.56.56-.5.56-.39.5.05.56.11.51.17.5.22.45.28.5.28.39.39.45.34.39.45.34.44.39.45.33.5.28,1.06.56,1.18.51,1.17.39,1.17.33,1.23.28,1.17.17,1.12.17,1.06.06.95-.06.84-.06.72-.11.73-.11.73-.22.67-.23.67-.22.67-.28.67-.34.61-.33.62-.39.61-.4.56-.39.56-.45.56-.5.5-.5.45-.51.5-.56.39-.56.45-.55.33-.62.34-.62.33-.61.28-.67.22-.62.23-.67.16-.67.12-.73.11-.67.05-.73v-.67l-.05-.73-.06-.72-.11-.68-.45-1.9-.5-1.84-.61-1.85-.67-1.79h4.02l.11.78.11.79.17.72.22.73.23.73.28.72.27.68.34.67.39.67.39.62.39.61.45.62.45.56.5.56.5.5.56.5.56.51.56.44.61.45.62.39.67.39.61.34.73.34.67.28.72.22.67.28.78.17.73.17.78.11.78.11.79.05h1.62l.83-.05.84-.11.78-.17.84-.17.78-.22.73-.28.78-.28.73-.34.72-.39.67-.39.67-.39.67-.51.62-.44.61-.56,1.12-1.12.5-.62.5-.61.45-.62.45-.67.78-1.46.28-.72.33-.73.23-.78.22-.79.22-.78.12-.84.11-.84.05-.84.06-.84-.06-.84ZM63.44,41.35l-.05.45-.11.5-.11.45-.17.39-.17.39-.22.39-.28.34-.28.28-.28.28-.34.22-.28.17-.33.17-.34.11-.39.11-.39.06-.39.05-.84.06-.83-.06-.9-.17-.95-.28-.95-.33-1-.45-.95-.5-1.01-.62-1-.73-.95-.78-.95-.84-.95-.89-.84-1.01-.84-1.01-.67-1.01-.67-1-.55-1.07-.45-1-.39-1.01-.28-.95-.22-.95-.06-.95-.06-.84.12-.84.05-.39.11-.4.11-.33.17-.34.17-.33.22-.28.23-.34.28-.22.27-.28.28-.17.28-.22.34-.12.39-.16.33-.12.4-.05.39-.06.83-.05.84.05.95.17.9.28,1,.34.95.44,1,.51.95.61,1.01.73.95.78.95.84.95.95.67.73.61.73.56.78.56.73h-3.74l-.28-.5-.78-.9-.51-.33-.5-.28-.56-.23-.61-.11-.62-.06h-.44l-.39.12-.45.05-.39.17-.39.17-.34.22-.33.28-.28.28-.28.28-.28.34-.22.33-.17.39-.17.4-.05.44-.12.39v.9l.12.45.05.39.17.39.17.39.22.34.28.33.28.34.28.28.33.22.34.23.39.17.39.16.45.11.39.06h.44l.67-.06.62-.11.56-.22.56-.34.5-.39.39-.39.39-.5.28-.56h5.47l.39,1.17.28,1.12.06.56.05.5v1.07ZM120.75,41.91l-.06.39-.11.39-.11.34-.17.33-.17.34-.22.33-.22.28-.28.23-.28.28-.28.22-.34.17-.33.17-.34.11-.33.11-.39.06-.39.05-.84.06-.9-.06-.89-.17-.95-.28-.95-.33-.95-.45-1-.5-1.01-.62-.95-.73-1-.78-.95-.84-.9-.89-.67-.79-.61-.72-.56-.73-.56-.79h3.74l.28.56.39.45.4.39.5.34.5.28.56.22.61.11.62.06h.44l.4-.06.44-.11.39-.16.34-.17.39-.23.33-.22.28-.28.28-.34.28-.33.23-.34.16-.39.11-.39.12-.39.05-.45.06-.45-.06-.45-.05-.39-.12-.44-.11-.4-.16-.39-.23-.33-.28-.34-.56-.56-.33-.28-.39-.22-.34-.17-.39-.17-.44-.05-.4-.12h-.44l-.67.06-.62.11-.61.28-.5.28-.51.39-.44.45-.34.5-.28.56-5.47-.05-.39-1.18-.28-1.12-.06-.56-.05-.5v-1.01l.05-.5.11-.45.12-.45.16-.44.17-.39.23-.34.27-.39.56-.56.28-.17.34-.22.33-.12.34-.16.39-.12.39-.05.39-.06.78-.05.9.05.89.17.95.28.95.34,1,.44.95.51,1.01.61,1,.73.95.78.95.84.95.95.84.96.78,1,.73,1.01.67,1.06.5,1.01.5,1.01.39,1,.28,1.01.17.95.11.9.06.89-.11.79Z"/><polygon class="cls-1" points="147.33 61.43 146.05 62.5 145.32 63.17 144.71 63.67 143.98 64.4 143.03 65.24 142.19 66.08 141.36 66.81 140.46 67.59 139.4 68.32 138.23 69.16 136.78 70.05 134.99 71 133.98 71.51 132.87 72.01 131.75 72.51 130.58 72.96 129.35 73.35 128.12 73.8 126.84 74.19 125.49 74.53 122.81 75.2 120.02 75.82 117.23 76.32 114.38 76.77 111.53 77.1 108.8 77.38 106.06 77.55 103.49 77.72 101.03 77.77 98.74 77.77 96.62 77.66 94.72 77.55 94.67 76.04 94.61 74.47 94.55 72.91 94.44 71.45 94.39 70.16 94.33 69.1 94.27 68.43 94.27 68.21 94.55 68.15 95.34 67.93 96.45 67.53 97.85 67.03 98.63 66.75 99.41 66.41 100.25 66.02 101.03 65.58 101.87 65.13 102.65 64.62 103.38 64.12 104.05 63.51 103.94 63 103.83 62.61 101.81 62.61 99.41 62.55 96.73 62.55 93.94 62.5 91.15 62.55 88.58 62.61 86.29 62.72 84.45 62.89 83.38 63.51 82.66 64.01 82.04 64.4 81.43 64.96 81.32 65.07 81.26 65.24 81.32 65.35 81.49 65.52 81.93 65.86 82.66 66.25 83.5 66.75 84.45 67.42 84.95 67.81 85.45 68.21 85.95 68.71 86.4 69.27 86.85 69.83 87.18 70.44 87.46 71.11 87.68 71.73 87.8 72.4 87.91 73.07 87.96 73.69 88.02 74.3 88.02 75.42 87.91 76.26 87.85 76.88 87.8 77.1 87.18 77.1 85.56 77.05 83.22 76.99 80.42 76.93 77.58 76.93 74.84 76.88 72.66 76.82 71.21 76.82 71.04 76.32 70.82 75.65 70.37 74.53 69.59 72.85 69.31 72.35 69.03 71.9 68.7 71.39 68.36 70.95 67.97 70.56 67.52 70.16 67.08 69.77 66.63 69.38 65.62 68.71 64.56 68.15 63.5 67.65 62.38 67.25 61.66 67.09 60.93 66.97 60.21 66.86 58.7 66.86 57.92 66.97 57.13 67.09 56.41 67.25 55.63 67.42 54.84 67.7 54.12 67.98 53.34 68.26 52.61 68.65 51.94 69.04 51.27 69.49 50.6 69.94 49.99 70.44 49.37 70.95 48.81 71.51 48.31 72.12 47.86 72.74 47.42 73.35 47.03 74.02 46.75 74.7 46.47 75.37 46.3 76.09 46.13 76.88 46.08 77.61 46.08 78.39 46.13 79.17 46.3 79.96 46.52 80.8 46.8 81.41 47.19 82.08 47.58 82.75 47.92 83.37 48.37 83.2 48.81 83.03 49.26 82.81 49.71 82.53 50.66 81.91 51.66 81.24 52.55 80.46 53.45 79.62 54.23 78.84 54.9 78 54.84 77.83 54.79 77.66 54.68 77.55 54.51 77.38 54.17 77.1 53.78 76.82 53.45 76.43 53.11 75.93 53 75.65 52.89 75.31 52.83 74.92 52.83 74.47 52.89 73.91 53 73.41 53.17 73.02 53.45 72.68 53.73 72.4 54.12 72.23 54.51 72.12 54.96 72.07 55.4 72.07 55.85 72.12 56.35 72.23 56.86 72.35 57.3 72.57 57.8 72.79 58.25 73.02 58.64 73.35 59.09 73.74 59.59 74.3 60.1 74.98 60.65 75.82 61.27 76.77 61.83 77.77 62.33 78.89 62.83 80.01 63.22 81.19 63.56 82.36 63.72 82.92 63.78 83.54 63.89 84.1 63.95 84.66 63.95 85.22 63.89 85.72 63.84 86.28 63.72 86.73 63.56 87.23 63.39 87.68 63.11 88.13 62.83 88.52 62.44 89.02 62.05 89.41 61.6 89.8 61.1 90.08 60.65 90.31 60.1 90.47 59.59 90.59 59.03 90.64 58.48 90.64 57.92 90.59 57.3 90.47 56.74 90.36 55.51 89.97 54.34 89.47 53.11 88.85 51.94 88.24 50.82 87.51 49.82 86.84 47.92 85.55 46.52 84.54 44.74 83.26 42.61 81.63 40.27 79.73 37.7 77.61 34.96 75.26 32.17 72.79 29.27 70.28 26.42 67.7 23.62 65.13 20.94 62.61 18.43 60.2 16.14 57.97 14.13 55.9 12.4 54.11 11.73 53.27 11.11 52.54 10.61 51.92 10.22 51.42 10.33 51.08 10.56 50.58 10.95 50.02 11.45 49.29 12.79 47.61 14.52 45.54 16.53 43.25 18.82 40.68 21.22 38.05 23.74 35.36 28.71 30.04 33.12 25.4 36.36 21.99 37.92 20.36 38.7 19.53 39.26 18.91 39.71 18.41 40.27 17.79 40.16 17.01 39.93 16.17 39.6 15.44 39.26 14.66 38.48 13.26 37.7 11.97 36.69 11.8 35.69 11.75 34.57 11.69 31.11 11.69 29.94 11.75 28.82 11.75 26.14 11.8 23.46 11.86 20.72 11.92 18.04 11.97 15.3 12.03 12.62 12.08 9.89 12.14 7.2 12.2 6.2 13.37 5.14 14.66 4.19 15.94 3.24 17.23 2.4 18.52 1.73 19.58 1.17 20.48 .84 21.15 .61 21.65 .56 21.99 .5 22.15 .56 22.27 .61 22.38 .67 22.49 .84 22.55 1.56 22.55 2.18 22.49 3.63 22.32 5.53 22.04 7.65 21.76 10 21.43 12.45 21.09 14.86 20.81 17.48 20.59 19.88 20.42 22.12 20.31 24.13 20.25 25.86 20.25 27.37 20.31 27.98 20.36 28.48 20.42 28.93 20.53 29.32 20.59 29.15 20.98 28.82 21.48 28.37 22.1 27.81 22.88 26.42 24.73 24.63 26.91 20.16 32.17 15.14 37.99 10 43.81 5.42 48.96 1.9 52.87 0 54.89 .11 55.22 .5 55.73 1.12 56.4 1.9 57.24 3.97 59.31 6.7 61.94 9.89 64.9 13.46 68.15 17.31 71.62 21.33 75.14 25.41 78.72 29.38 82.14 33.23 85.38 36.75 88.29 39.82 90.87 42.45 92.88 43.51 93.66 44.4 94.28 45.07 94.73 45.63 95.01 46.19 95.29 46.8 95.46 47.47 95.68 48.09 95.79 49.37 96.01 50.71 96.18 53.39 96.18 54.73 96.01 56.02 95.79 57.3 95.51 58.53 95.18 59.7 94.78 60.82 94.28 61.88 93.78 62.83 93.22 63.72 92.6 64.45 91.99 64.95 91.54 65.68 90.92 66.57 90.08 67.47 89.02 67.97 88.4 68.47 87.79 68.92 87.06 69.37 86.28 69.76 85.5 70.15 84.6 70.48 83.65 70.76 82.64 71.94 82.75 73.5 82.81 75.45 82.92 77.8 83.03 80.31 83.09 83.1 83.2 86.06 83.26 89.14 83.31 95.39 83.31 98.52 83.26 101.53 83.2 104.38 83.09 107.01 82.92 109.41 82.7 111.48 82.42 113.88 82.03 116.11 81.58 118.23 81.13 120.25 80.63 122.09 80.12 123.88 79.56 125.55 78.95 127.17 78.33 128.68 77.72 130.07 77.05 131.47 76.32 132.76 75.59 134.04 74.81 135.21 74.02 136.44 73.24 137.56 72.4 138.68 71.56 139.79 70.56 141.02 69.49 142.25 68.26 143.59 66.97 144.88 65.52 146.22 64.01 147.56 62.39 147.5 61.83 147.33 61.43"/></symbol><symbol id="New_Symbol_4" viewBox="0 0 89.19 92.41"><path class="cls-1" d="M78.68,66.87c.95-3.24,1.43-6.59,1.42-9.97.01-9.42-3.73-18.45-10.4-25.11-3.91-3.92-8.68-6.86-13.93-8.6-1.89-8.49-5.71-16.43-11.18-23.19-5.45,6.76-9.25,14.69-11.12,23.17-5.28,1.74-10.07,4.69-13.99,8.62-6.67,6.66-10.41,15.69-10.4,25.11,0,3.38.48,6.75,1.42,9.99-6.01,7.05-9.68,15.8-10.5,25.02.22,0,.44,0,.65,0,8.39.01,16.67-1.86,24.25-5.46,5.83,3.89,12.68,5.96,19.69,5.95,7.05,0,13.95-2.09,19.8-6.02,7.57,3.59,15.84,5.45,24.21,5.44.2,0,.39-.01.59-.01-.83-9.2-4.5-17.92-10.51-24.95ZM57.11,35.46c0-2.33-.14-4.66-.43-6.97,3.61,1.54,6.9,3.77,9.67,6.55,5.78,5.76,9.02,13.59,9.01,21.75,0,2.02-.2,4.05-.59,6.03-5.71-5.21-12.67-8.85-20.2-10.57,1.69-5.43,2.54-11.09,2.54-16.79ZM44.55,8.33c2.59,4.21,4.57,8.77,5.86,13.53-1.93-.31-3.87-.47-5.82-.47s-3.93.16-5.86.48c1.28-4.77,3.24-9.33,5.82-13.54ZM37.66,26.82c2.27-.53,4.6-.79,6.94-.79s4.63.25,6.89.77c.47,2.83.71,5.7.7,8.57.01,5.45-.85,10.87-2.54,16.05-1.68-.19-3.36-.28-5.05-.28s-3.38.09-5.06.28c-1.71-5.21-2.58-10.66-2.57-16.14,0-2.84.22-5.67.69-8.46ZM47.85,56.14c-.94,2.13-2.02,4.2-3.24,6.18-1.23-1.98-2.31-4.05-3.25-6.18,1.08-.09,2.16-.13,3.24-.13s2.17.04,3.25.13ZM22.85,35.04c2.79-2.79,6.08-5.02,9.71-6.56-.28,2.28-.42,4.59-.42,6.89,0,5.72.86,11.41,2.57,16.87-7.56,1.71-14.55,5.35-20.27,10.58-.4-1.98-.6-4.01-.59-6.03,0-8.16,3.23-15.99,9-21.75ZM5.76,86.71c1.25-5.26,3.55-10.2,6.76-14.54,1.74,3.66,4.09,6.98,6.96,9.84.33.33.67.66,1.01.98-4.7,1.96-9.66,3.21-14.73,3.72ZM22.85,78.53c-2.98-2.97-5.31-6.52-6.86-10.44.13-.13.26-.26.39-.4,5.47-5.48,12.42-9.24,20-10.83,1.41,3.44,3.17,6.73,5.23,9.83-1.39,1.82-2.9,3.54-4.52,5.16-3.5,3.5-7.48,6.49-11.83,8.85-.84-.68-1.64-1.4-2.41-2.17ZM44.6,87.54c-5.15,0-10.22-1.28-14.74-3.75,3.9-2.36,7.5-5.18,10.71-8.41,1.45-1.44,2.81-2.96,4.09-4.55,1.26,1.56,2.6,3.05,4.02,4.46,3.23,3.24,6.85,6.08,10.77,8.44-4.55,2.51-9.66,3.82-14.85,3.81ZM64,80.66c-4.39-2.37-8.4-5.37-11.92-8.9-1.58-1.58-3.06-3.25-4.42-5.02,2.07-3.11,3.83-6.41,5.25-9.87,7.54,1.6,14.46,5.36,19.91,10.82.13.14.26.27.39.4-1.54,3.92-3.88,7.47-6.86,10.44-.75.75-1.53,1.46-2.35,2.13ZM68.75,82.93c.32-.3.64-.61.95-.92,2.87-2.86,5.23-6.2,6.97-9.86,3.21,4.32,5.5,9.24,6.75,14.47-5.04-.5-9.99-1.75-14.67-3.69Z"/></symbol><symbol id="New_Symbol_5" viewBox="0 0 95.39 95.39"><path class="cls-1" d="M58.73,17.63c-1-1.65-3.1-2.07-4.21-3.62-1.87-1.05-4.06-.93-6.11-1.28-2.33-.5-4.31.99-6.41,1.67-1.87.7-3,2.46-3.76,4.2-.72.62-1.52,1.18-2.12,1.92-.81,1.53-.73,3.29-1.08,4.94-.9,2.97.07,6.05-.71,9.05.45,2,.05,3.98-.25,5.97.93,2.82-.75,5.57-.21,8.42.21,1.74-.28,3.52.1,5.26.54,2.04-.6,4.18.21,6.19.55,1.54.3,3.19.61,4.78,1.13,3.48,4.29,5.68,6.08,8.78.04,2.98-.39,6.27,1.47,8.85,3.25-2.7.54-7.51,3.14-10.54,1.86-2.35,4.28-4.32,5.53-7.11.67-1.53.32-3.22.42-4.83,1.16-4.48.34-9.18,1.13-13.71-.93-2.52-.3-5.14-.27-7.74.54-3.58.54-7.29,1.74-10.74,2.04-.83,3.96-2.06,4.9-4.14,1.13-.88,2.33-1.84,2.7-3.31-1.17-.8-2.15-1.82-2.9-3.01ZM40.9,48.06c-.83-1.11-2.07-1.47-3.21-2.07-1.46-1.88-2.94-4.36-1.98-6.8,1.06,1.17,2.08,2.37,3.12,3.56.2-.25.61-.74.81-.99.71,1.26,1.42,2.53,1.78,3.95-.96-.44-1.63-1.16-2.42-1.8.29,1.52,1.07,2.86,1.9,4.15ZM40.91,68.81c-.73-.45-1.4-.92-2.09-1.39.08.52.24,1.55.32,2.07-2.02-1.48-3.75-3.64-3.54-6.29,1.12.85,2.14,1.83,3.18,2.78.27-.44.54-.87.81-1.3.59,1.32,1.47,2.6,1.32,4.13ZM40.54,53.69c-.23.14-.68.42-.92.56.39,1.5,1.35,2.78,1.79,4.28-1.01-.51-1.72-1.36-2.64-1.98.52,1.94,1.98,3.46,2.51,5.4-.7-.42-1.38-.86-2.04-1.3.51,1.25,1.03,2.49,1.53,3.76-.34-.15-1.03-.46-1.38-.61-.24.38-.47.76-.71,1.14-.78-1.2-1.81-2.18-2.7-3.28-.91-1.2-.87-2.77-.94-4.2.32.12.97.36,1.3.48.85.77,1.72,1.56,2.8,2.01-1.13-2.78-5.33-4.65-3.7-8.11.63.75,1.29,1.53,1.86,2.35.23.09.68.3.9.4-.81-2-2.3-3.65-2.97-5.7-.13-1.25.04-2.49.16-3.72,1.35.67,2.13,2,2.95,3.19.31-.02.93-.06,1.23-.08.74,1.22,1.29,2.55,1.91,3.84-.85-.48-1.7-.93-2.56-1.37.47,1.01,1.06,1.97,1.62,2.94ZM42.62,78.13c-.86-6.29-.79-12.77.14-19.05.06,3.78.41,7.55.2,11.33.14,2.58.13,5.17-.34,7.72ZM42.88,57.8c-.79-.06-.93-.41-.43-1.05.78.05.92.4.43,1.05ZM42.75,44.64c-.34-3.21-.33-6.54.35-9.71-.07,3.24-.47,6.46-.35,9.71ZM51.09,41.43c-.21,2.7-2.29,4.76-2.63,7.4.78-.95,1.44-2.01,2.27-2.93.74,3.31-1.78,5.79-2.88,8.63,1.18-.79,1.77-2.19,3.03-2.87.62,3.79-2.64,6.28-3.73,9.55,1.29-1.16,1.95-2.9,3.55-3.74.18,3.12-2.34,5.17-3.62,7.72,1.08-.67,2.02-1.51,3.07-2.23-.9,3.19-2.8,6.2-5.57,8.06.12-1.47.85-2.75,1.63-3.97-.63.25-1.26.48-1.89.7.59-1.27,1.41-2.41,2.13-3.62-.46.16-1.39.48-1.85.63.13-.53.4-1.58.54-2.12.61-.84,1.26-1.66,1.87-2.51-.57.27-1.71.8-2.28,1.07.6-1.17,1.27-2.31,1.91-3.45-.53.3-1.6.91-2.13,1.21.62-1.5,1.4-2.92,2.34-4.24-.74.44-1.47.88-2.23,1.25.64-1.45,1.55-2.77,2.37-4.12-.52.3-1.56.92-2.09,1.23.53-.97,1.05-1.94,1.57-2.9-.39.09-1.19.27-1.58.36.62-1.44,1.53-2.71,2.43-3.98-.8.49-1.59.99-2.36,1.49.52-1.23,1.11-2.44,1.51-3.72-.4.28-1.18.84-1.58,1.11.16-1.83,1.55-3.11,2.5-4.56-.23.06-.67.17-.9.23-.63.6-1.32,1.15-2.04,1.61.35-1.73,1.36-3.19,2.45-4.55-.8.32-1.58.66-2.35,1.01.36-.95.75-1.88,1.15-2.82.21.23.64.7.86.93,1.39-1.41,2.88-2.73,4.46-3.94-.28,2.25-2.06,3.72-3.52,5.27-.12.54-.24,1.08-.34,1.64,1.37-1.14,2.33-2.94,4.19-3.36-.69,2.79-2.52,5.07-4.07,7.43,1.12-1.15,2.36-2.17,3.81-2.9ZM49.19,26.82c2.16-.94,4.39-1.97,6.82-1.92-1.37,1.92-4.09,1.71-5.76,3.23-1.1.87-1.76,2.12-2.23,3.41.54-.47,1.05-.98,1.54-1.51.76-.38,1.53-.73,2.33-1.05-.65,3.22-3.29,5.39-5.62,7.46.12-.44.37-1.31.49-1.75-.44.06-1.32.18-1.75.24.84-1.45,1.68-2.91,2.28-4.48-.58.47-1.76,1.39-2.35,1.85.5-1.77,1.66-3.25,2.24-4.97-.45.34-1.35,1.03-1.8,1.37.05-1.79,1.64-2.72,2.78-3.81-.78.18-1.56.36-2.33.55.61-.71,1.25-1.4,1.93-2.06-.06-.32-.19-.98-.25-1.3,1.22-.89,2.37-1.97,3.93-2.22-2.64-.02-5.54.73-7.1,3.01-.21-.04-.63-.13-.85-.18.27-.91.5-1.84.64-2.78-1.68,1.83-.74,4.47-2.03,6.43-.63-1.27-1.19-2.56-1.66-3.88.06.45.13.9.2,1.36.1,2.11,1.31,3.99,1.37,6.12-1.15-.92-1.64-2.31-2.45-3.48-.04,2.47,1.6,4.43,2.14,6.74-.41-.37-1.23-1.11-1.64-1.48-.17,1.41.42,2.68,1.22,3.81-.61-.62-1.24-1.22-1.86-1.79-.12,2.14,1.84,3.61,2.17,5.67-1.05-.64-1.81-1.61-2.7-2.43.41,1.81,1.78,3.16,2.34,4.92-.69-.55-1.29-1.22-1.89-1.86-.13.25-.39.74-.52.99-1.87-2.13-3.8-4.7-3.09-7.73.77.82,1.53,1.67,2.44,2.36-1-2.58-3.28-5.08-1.97-8.01,1,1.26,1.72,2.72,2.83,3.9-.32-1.89-1.48-3.45-2.19-5.19-.66-1.74-.12-3.6.66-5.19.31.27.93.81,1.23,1.08.06-2.27.98-4.55,2.97-5.79.02.61.06,1.84.09,2.46,1.09-2.39,2.86-5.02,5.78-5.13-.41.75-.82,1.49-1.23,2.24,1.92-.79,3.88-1.61,6-1.66l-.03.87c-1.13.24-2.18.71-2.77,1.74,1.11-.36,2.21-.76,3.33-1.12,1.76.46,3.52,1.05,4.88,2.33-.89.58-1.89.9-2.91,1.1,1.79.18,4.45.2,5.26,2.1-3.09,2.89-8.54,1.49-10.91,5.43Z"/><path class="cls-1" d="M81.42,13.97C72.48,5.01,60.35,0,47.7,0c-12.66-.01-24.79,5.01-33.73,13.97C5.01,22.91,0,35.04,0,47.69c-.01,12.66,5.01,24.79,13.97,33.73,8.94,8.96,21.07,13.98,33.73,13.97,12.65,0,24.78-5.01,33.72-13.97,8.96-8.94,13.98-21.07,13.97-33.73.01-12.65-5.01-24.78-13.97-33.72ZM76.6,76.6c-7.66,7.68-18.06,11.99-28.9,11.97-10.85.02-21.25-4.29-28.91-11.97-7.68-7.66-11.99-18.06-11.97-28.91-.02-10.84,4.29-21.24,11.97-28.9,7.66-7.68,18.06-11.99,28.91-11.97,10.84-.02,21.24,4.29,28.9,11.97,7.68,7.66,11.99,18.06,11.97,28.9.02,10.85-4.29,21.25-11.97,28.91Z"/></symbol><symbol id="New_Symbol_6" viewBox="0 0 112.4 97.44"><path class="cls-1" d="M102.71,38.84c-4.62-4.63-10.5-7.78-16.91-9.06-.76-7.59-4.13-14.69-9.54-20.09C70.07,3.48,61.64,0,52.86,0c-8.77-.01-17.2,3.48-23.4,9.69-6.21,6.2-9.7,14.62-9.69,23.4,0,.32.01.64.01.95-3.76,1.65-7.19,4-10.09,6.91C3.47,47.15-.02,55.57,0,64.35c-.02,8.78,3.47,17.2,9.69,23.4,6.2,6.22,14.62,9.71,23.4,9.69,8.78.02,17.2-3.47,23.4-9.69.27-.27.53-.54.79-.81,6.06,5.42,13.9,8.41,22.03,8.39,8.78.02,17.2-3.47,23.4-9.69,6.21-6.2,9.7-14.62,9.69-23.4.01-8.78-3.48-17.2-9.69-23.4ZM59.14,43.94c.28-.3.57-.6.86-.89,5.1-5.12,12.04-7.99,19.27-7.98.25,0,.5,0,.74.01-.45,6.55-3.26,12.72-7.91,17.36-1.96,1.96-4.21,3.62-6.66,4.9-1.06-4.89-3.21-9.47-6.3-13.4ZM59.86,59.51c-2.3.61-4.66.92-7.03.92-.25,0-.5-.01-.75-.01.28-4.03,1.45-7.93,3.42-11.45,2.18,3.17,3.67,6.76,4.36,10.54ZM33.55,13.9c5.11-5.12,12.05-7.99,19.28-7.98,7.22-.01,14.16,2.86,19.27,7.98,4.13,4.13,6.83,9.47,7.68,15.25h-.47c-8.78-.01-17.2,3.48-23.4,9.69-.27.27-.53.54-.79.81-6.06-5.41-13.9-8.4-22.03-8.39-2.52-.01-5.04.28-7.5.85.26-6.86,3.11-13.36,7.96-18.21ZM51.47,44.34c-2.96,4.6-4.73,9.85-5.16,15.3-4.83-1.18-9.24-3.67-12.76-7.2-3.91-3.9-6.54-8.91-7.54-14.35,2.3-.61,4.66-.92,7.04-.91,6.82-.01,13.39,2.55,18.42,7.16ZM52.32,83.7c-5.11,5.12-12.04,7.99-19.27,7.98-7.23.01-14.17-2.86-19.27-7.98-5.12-5.1-7.99-12.04-7.98-19.27-.01-7.23,2.86-14.17,7.98-19.27,1.98-1.99,4.26-3.66,6.76-4.95,1.35,6.17,4.45,11.82,8.92,16.28,4.62,4.63,10.51,7.78,16.92,9.06.62,6.25,3.02,12.2,6.9,17.14-.31.34-.63.68-.96,1.01ZM56.82,77.78c-2.39-3.46-3.94-7.43-4.53-11.6.19.01.38.01.57.01,2.5,0,4.99-.28,7.43-.84-.14,4.36-1.34,8.62-3.47,12.43ZM98.54,81.59c-5.11,5.12-12.04,7.99-19.27,7.98-6.83.01-13.41-2.55-18.43-7.17,3.49-5.37,5.35-11.64,5.34-18.05,0-.32,0-.63-.01-.95,3.77-1.65,7.19-3.99,10.09-6.91,5.54-5.52,8.94-12.83,9.58-20.62,4.81,1.19,9.2,3.67,12.7,7.18,5.12,5.11,7.99,12.04,7.98,19.27.01,7.23-2.86,14.17-7.98,19.27Z"/></symbol></defs><g id="Logo_Main"><path class="cls-1" d="M190.27,252.14h63.73c3.29,0,5.28.74,5.96,2.22.23.8-.2,2.07-1.28,3.83-1.08,1.76-1.56,3.33-1.45,4.69.24,2.94,1.42,6.82,3.58,11.59,2.16,4.77,3.24,8.29,3.24,10.56,0,1.36-.28,2.73-.85,4.09-1.25,3.07-3.81,5.46-7.67,7.16-5.68,2.5-8.98,4.15-9.88,4.94,7.04,6.25,11.82,10.54,13.94,14.2,3.43,5.87,5.76,13.07,6.97,21.57,1.21,8.5,1.91,17.54,1.33,25.61-.63,8.78-1.32,19.52-7.4,26.99-6.87,8.25-14.38,10.43-22.07,8.3-15.61-4.78-30.34-10.4-44.19-19.22-3.06-2-4.75-4.4-5.26-6.99-.26-1.23.04-2.26.94-3.17.9-.91,1.8-1.85,2.69-2.83,1.6-2.42,2.65-9.89,3.02-22.21.12-3.9.26-9.37.33-16.16.08-8.28.01-13.71-.04-16.04-.21-9.09.11-18.74,0-27.94-.11-9.66-1.36-16.64-3.41-20.62-.46-.91-1.65-2.4-3.58-4.26-1.53-1.48-2.32-2.85-2.21-4.09.12-1.46,1.3-2.22,3.58-2.22ZM216.84,302.24c2.48-3.75,6.1-7.12,10.84-10.05,6.07-3.76,9.77-6.19,11.01-7.33,3.05-2.84,4.57-5.96,4.57-9.37,0-1.82-.45-3.52-1.36-5.11-1.69-3.07-4.91-4.6-9.65-4.6-3.39,0-6.39.74-8.98,2.22-3.16,1.81-5.36,4.17-6.61,6.99-1,2.27-1.61,5.72-1.86,10.22-.4,7.11.22,12.84,2.03,17.04ZM213.19,338.58c-.5,8.64.61,16.48,3.29,23.73,2.68,7.25,6.15,11.72,10.58,12.97,4.42,1.26,8.49-1.1,12.11-7.62,4.05-7.28,5.99-17.47,6.34-25.56.44-10.16-.41-18.7-3.08-24.99-2.67-6.29-6.65-8.22-11.17-8.22s-8.29,2.15-11.92,7.97c-3.63,5.82-5.64,12.94-6.15,21.72Z"/><path class="cls-1" d="M297.96,310.24c.13,16.83-4.35,76.4,18.46,81.94,3.65.89,6.82-1.04,9.09-6,2.27-4.96,3.33-11.6,3.24-19.9-.04-3.44-.26-7.01-.65-10.65-1.37-8.04-2.85-22.79-8.7-24.57-.62-.19-2.06,1.23-3.4,3.74-1.34,2.51-2.55,3.5-3.59,2.97-1.47-.75-2.61-2.78-2.74-5.51-.13-2.54.1-5.46.11-8.08.01-7.53.16-10.98.61-11.55,1.59-1.82,4.21-2.79,7.84-2.9,4.53-.13,8.9,1.91,12.91,8.71,3.2,5.42,5.86,13.41,8.15,24.09,1.59,7.39,3.43,15.31,5.15,23,1.85,8.28,2.77,15.17,2.86,20.35.11,5.94-.75,11.04-2.63,15.23-2.09,4.66-7.09,6.62-15.02,6.71-16.03,0-31.89-.61-47.86-2.04-3.95-.41-5.98-.68-6.1-.69-2.18-.69-3.57-2.02-4.19-4.06-.21-.63-.3-1.18-.27-1.63.06-1.06,1.06-2.81,2.96-5.44,1.9-2.62,3.09-5.36,3.56-8.13,3.73-24.96,4.73-51.33,4.53-76.1-.07-8.93-.36-18.28-.68-27.26-.34-9.44-1.7-16.81-3.75-21.81-.23-.68-.91-1.56-2.04-2.64-1.13-1.08-1.7-2.02-1.7-2.81,0-.34.11-.79.34-1.36.57-1.13,2.04-1.7,4.43-1.7h31.69c3.75,0,5.79,2.01,6.3,5.79.59,4.36-.34,6.65-3.07,6.65-.8,0-1.65-.46-2.56-1.36-.91-.91-1.76-1.42-2.56-1.53-4.32-.34-6.87,1.19-7.67,4.6-3.57,14.28-3.18,29.46-3.07,43.96Z"/><path class="cls-1" d="M364.07,252.14h36.97c5.56,0,9.65,1.08,12.27,3.24,1.82,1.48,3.29,4.03,4.43,7.67,4.04,12.52,7.25,25.39,10.56,38,6.84,26,7.17,55.28,7.6,82.26,0,2.16-.04,4-.12,5.56-.46,8.76-3.18,12.09-7.99,12.58-8.12.81-12.14,1.16-20.36,1.83-2.44.2-3.84-.65-4.21-2.88-.37-2.23.27-4.35,1.96-6.17,2.54-2.65,4.02-4.59,4.45-5.62,4.63-11.83,5.72-24.55,5.88-36.76.16-11.63-.13-24.19-3.69-35.59-3.29-10.56-9.44-13.87-16.99-13.68-5.98.16-11.58,2.83-16.59,7.5-9.28,8.64-8.78,22.84-8.32,33.97.38,9.08,1.38,19.03,3.94,28.13,2.25,8,5.94,14.38,11,19.02,2.97,2.79,4.46,4.09,4.57,4.24,1.4,1.59,2.02,3.43,1.77,5.28-.36,2.68-2.22,3.94-5.43,4.17-8.67.61-13.28.95-22.52,1.58-7.52.51-11.42-2.52-11.6-13.44-.02-1.19.02-2.5.11-3.94,1.23-15.4,2.41-30.96,4.13-46.15,1.18-10.44,2.4-21.22,4.78-31.58,1.7-7.44,3.61-15.06,5.28-22.58,1.56-7.02,2.37-13.04,2.56-17.55.28-6.53-2.1-9.88-6.99-9.88-2.39,0-3.96,1.1-4.6,3.24-.7,2.34-.4,4.09.85,5.11.68.46.97,1.25,1.02,2.22.05.97-.06,1.82-.51,2.39-1.82,1.93-4.09,1.59-6.82-1.02-2.73-2.61-4.09-5.39-4.09-8.35,0-8.52,5.56-12.78,16.7-12.78ZM377.36,296.61c9.23-5.4,18.35-10.52,29.48-10.22.23-5.45-.68-10.02-2.73-13.72-2.04-3.69-5.17-5.54-9.37-5.54-5.57,0-10.22,3.79-13.63,11.25-2.87,6.28-4.09,12.44-3.75,18.23Z"/><path class="cls-1" d="M455.4,252.14h46.69c3.29,0,5.11.31,5.45.94.34.62.51,1.17.51,1.62,0,.68-.43,1.73-1.28,3.15-.85,1.42-1.24,2.62-1.28,3.49-.11,2.62.99,6.9,3.66,12.52,2.67,5.62,4,10.03,4,13.21,0,1.48-.17,2.96-.51,4.43-.8,2.39-2.55,3.95-5.11,4.77-1.69.54-5.21,1.07-10.39,1.36-4.62.26-7.7.31-9.03.17-3.57-.37-6.19-1.9-7.67-4.34-1.48-2.44-2.34-5.76-2.73-9.8-.2-2.13.25-3.65,1.36-4.26,1.5-.82,3.18-.23,4.77,1.7,1.59,1.93,3.36,2.64,5.11,2.39,2.16-.31,3.41-2.22,3.41-5.96,0-2.61-.51-4.83-1.53-6.65-2.27-4.43-5.34-6.59-9.2-6.48-3.75.11-7.04,2.38-9.88,6.65-2.57,3.85-4.45,8.93-5.45,15.16-1.27,7.92-1.63,16.16-1.87,23.85-.51,16.07-1.53,34.1,3.09,50.14,3.19,11.09,7.68,15.28,13.51,13.86,6.26-1.52,10.84-6.79,13.31-16.05,1-3.8,1.72-11.56,2.16-22.45.21-5.13,1.74-7.59,4.63-7.68,1.96-.06,3.3,1.13,4.03,3.63,3.09,10.11,6.22,20.23,7.45,30.78.19,2.64.22,5.12.06,7.43-.36,5.21-1.73,9.3-4.12,12.52-4.07,5.38-10.36,8.69-18.22,10.17-9.48,1.73-18.96,3.42-28.5,4.82-9.83,1.46-15.27-1.79-17.13-13.13-2.02-12.38-2.19-25.12-1.67-37.4.55-12.8,2.99-25.96,5.05-38.85.34-3.41,1.44-10.84,3.41-22.15,1.44-8.26,2.22-14.2,2.22-17.72,0-1.7-.11-3.12-.34-4.26-.23-1.13-.94-2.58-2.13-4.34-1.19-1.76-1.79-3.09-1.79-4,0-.45.17-.91.51-1.36.68-1.25,2.5-1.87,5.45-1.87Z"/><path class="cls-1" d="M563.76,305.64c.68.57,1.73.94,3.07,1.02,3.21.19,6.56.31,9.8.6,3.24.28,6.14,1.85,8.69,4.69,2.56,2.84,3.89,7.35,3.95,13.92.02,1.72-.1,4.45-.35,8.19-.25,3.75-.37,6.61-.35,8.56.02,2.06.15,3.89.39,5.47.86,7.02,3.51,10.15,7.77,9.41,3.49-.6,5.42-2.77,5.92-5.99.27-1.74-.2-3.21-1.58-4.34-.23-.27-1.33-.52-3.25-.78-1.48-.2-2.23-.85-2.24-1.89-.03-2.92,2.06-4.5,6.1-4.85,4.04-.36,6.88.46,8.38,2.51.81,1.26,1.43,3.61,1.77,7.03.55,5.52-.33,9.92-2.52,12.94-2.19,3.02-4.98,4.93-8.39,5.64-3.34.69-5.01,1.04-8.36,1.76-4.1.88-6.84,1.16-8.21.81-2.06-.52-4.51-3.53-6.59-9.03-1.98-5.24-3.8-11.16-5.78-17-1.98-5.83-3.8-12.18-5.92-17.78-2.88-7.57-7.29-11.54-11.83-11.52-5,.02-7.49,4.7-7.47,15.51,0,1.42.11,3.88.36,7.4.61,8.89.81,18.64,4.36,27.04.81,1.83,2.43,3.69,4.85,5.52,1.61,1.41,2.22,2.84,1.92,4.26-.37,1.74-2.34,3.08-6.03,3.96-9,2.15-17.99,4.31-26.99,6.41-4.18.96-6.24.54-6.4-1.23-.14-1.66,1.09-4.07,3.7-7.22,2.61-3.15,4.08-6.77,4.55-10.79,1.01-8.57,1.84-17.54,2.1-26.29-.19-15.42-.23-30.8-.85-46.18-.39-9.61.02-22.83-4.26-31.86-.23-.34-1.25-1.3-3.07-2.9-1.14-1.02-1.7-1.93-1.7-2.73,0-2.5,1.93-3.75,5.79-3.75h20.11c3.18,0,5.17.57,5.96,1.7.34.57.51,1.19.51,1.87,0,.91-.77,2.39-2.3,4.43s-2.47,3.64-2.81,4.77c-1.48,5.23-2.1,11.02-2.04,17.21.05,5.85.33,10.13,1.02,12.61,1.11,3.96,3.33,5.93,6.48,5.96,4.71.06,9.54-5.91,14.31-18.06,1.36-3.52,2.64-9.28,3.75-17.21.93-6.67,1.93-10.59,3.07-11.67,1.13-1.08,3.46-1.62,6.99-1.62h17.55c3.41,0,5.24,1.15,5.45,3.41.12,1.24-.97,2.65-3.24,4.09-3.24,2.06-5.28,3.41-5.96,4.09-3.3,3.64-6.3,9.23-9.03,16.78-2.73,7.56-5.85,13.09-9.37,16.61-4.77,4.77-8.69,7.61-11.76,8.52Z"/><path class="cls-1" d="M660.54,252.14h31.69c5.79,0,10.39,1.59,13.8,4.77,6.99,6.75,11.25,15.49,15.16,24.02,3.98,8.69,6.79,19.12,8.35,28.63,1.83,11.18,4.13,15.88,4.6,19.13.9,6.26-1.74,10.73-9.31,16.28-5.62,4.12-13.81,7.37-23.88,8.09-13.5,1.09-26.9,2.52-40.33,4.25-4.29.59-6.72-.18-7.3-2.17-.34-.84.39-2.37,2.18-4.43,2.13-2.46,3.53-4.7,4.2-6.76,1.44-4.61,2.15-9.27,2.11-15.31.04,5.97-.43,5.64-.6-18.73-.06-8.35.05-16.87,0-25.22-.06-8.69-1.19-15.79-3.24-21.13-.34-1.02-1.36-2.5-3.07-4.26-1.43-1.47-2.21-2.73-2.21-3.75,0-.45.17-.96.51-1.53.57-1.13,1.53-1.76,2.9-1.87h4.43ZM690.12,267.31c-13.51,1.14-12.89,25.96-13.05,35.44-.05,3.01.14,6.16.34,9.2.89,13.29,2.25,17.52,4.13,21.09,2.98,5.66,7.83,8.5,14.56,8.11,6.38-.37,10.51-3.85,12.34-9.2.99-2.89,1.8-6.63,1.18-20.51-.45-10.02-1.82-20.42-5.76-29.99-3.91-9.49-8.65-14.57-13.73-14.14Z"/><path class="cls-1" d="M796.68,252.14c4.09,0,6.13,1.14,6.13,3.41,0,.68-.37,1.99-1.11,3.92-.74,1.93-1.17,3.41-1.28,4.43-.71,14.12,2.93,28.56,5.79,42.26,1.59,7.16,4.08,13.28,6.46,18.62,2.38,5.34,3.77,9.41,4.27,12.71.6,3.99.1,7.44-1.42,10.37-2.73,5.24-9.17,7.59-20.31,6.34-9.8-1.1-14.86-1.52-25.71-2.06-5.51-.27-10.14-.84-13.5-1.85-4.45-1.33-8.44-3.74-11.67-6.45-3.24-2.71-5.13-5.96-5.72-9.47-.5-2.94-.09-6.14,1.06-12.32.78-4.18,1.84-10.38,3.15-16.75,1.49-7.2,2.82-14.85,4.26-22.32,1.27-6.56,1.87-11.47,1.87-14.65,0-2.16-.23-4.03-.68-5.62-.23-.79-.88-2.11-1.87-3.92-.8-1.45-1.19-2.61-1.19-3.41,0-2.16,2.22-3.24,6.65-3.24h44.81ZM757.36,312.95c.07,13.17,8.88,26.56,22.84,28.24,13.06,1.56,14.63-11.76,12.34-21.51-.43-1.81-.76-4.1-1.25-6.58-.9-11-1.02-46.65-16.41-47.66-4.77-.31-9.39,4.87-12.61,14.48-3.52,10.53-4.97,22.14-4.91,33.03Z"/><path class="cls-1" d="M828.72,252.14h48.39c3.29,0,5.28.51,5.96,1.53.23.34.34.74.34,1.19s-.34,1.25-1.02,2.39c-.68,1.14-1.11,2.07-1.19,2.73-.32,2.61.53,6.2,2.21,10.39,1.82,4.53,2.73,8.24,2.73,11.08,0,1.25-.11,2.5-.34,3.75-.8,4.66-3.18,7.04-7.16,7.16-6.54.2-9.81.31-16.36.51-3.64.11-5.45-.74-5.45-2.56,0-1.7.85-2.95,2.56-3.75,6.13-2.84,8.74-6.93,7.84-12.27-.46-2.72-1.65-4.94-3.58-6.65-1.93-1.7-4.15-2.44-6.65-2.22-20.18,2.2-19.51,32.98-19.6,47.03-.07,11.29,2.79,17.81,5.87,24.62,3.84,8.48,8.53,13.84,14.32,15.01,4.62.93,8.37-.53,11.01-4.54,2.26-3.43,3.39-8.1,3.35-13.72-.03-5.3-.44-9.29-1.26-11.85-1.34-4.17-3.91-6.17-7.51-5.99-4.06.19-7.23,2.98-9.4,7.93-.72,1.75-1.87,2.48-3.41,2.21-1.99-.35-2.76-2.58-2.62-6.54.07-2.12-.04-4.55.04-6.88.06-1.67.51-3.37,1.19-4.97,1.25-2.97,3.86-4.46,7.84-4.46h26.75c2.73,0,4.49.57,5.28,1.7.34.57.51,1.19.51,1.87,0,.91-.34,2.11-1.02,3.58-.9,1.93-1.48,3.17-1.71,3.73-.91,2.8-1.49,7.24-1.38,13,.24,11.62,1.85,22.27,4.4,33.87.23.74,1.08,2.66,2.58,5.79.92,2.19,1.22,3.88.87,5.05-.7,2-2.92,2.48-6.54,1.52-14.13-3.75-28.28-7.42-42.53-10.7-7.78-1.77-13.62-6.24-17.84-12.36-3.74-5.43-6.11-11.82-6.45-20.1-.41-9.95,1.16-19.78,2.99-29.68,1.67-9.06,3.72-18.22,4.26-27.43.12-2.04.32-5.58,0-9.88-.07-.87-.71-2.07-1.79-3.49-1.08-1.42-1.62-2.58-1.62-3.49,0-.79.31-1.67.94-2.64.62-.96,2.01-1.45,4.17-1.45Z"/><path class="cls-1" d="M196.52,626.81c-1.77,0-2.65-.64-2.65-1.92,0-.48.12-.96.36-1.44s.52-1.16.84-2.04c.32-.88.6-2.13.84-3.73.24-1.6.36-3.77.36-6.49,0-53.78.01-107.56.03-161.35,0-3.11-.12-5.55-.36-7.4-.24-1.85-.53-3.3-.85-4.37-.33-1.07-.61-1.95-.86-2.64-.24-.69-.37-1.29-.37-1.78,0-1.31.9-1.53,2.69-.74,6.85,3.02,10.27,4.36,17.08,6.76,1.78.63,2.67,1.52,2.67,2.74,0,.46-.12.92-.37,1.38-.24.46-.53,1.07-.86,1.84-.33.76-.61,1.91-.86,3.47-.25,1.56-.38,3.77-.38,6.68-.15,51.55-.23,103.11-.23,154.66,0,1.44.64,2.16,1.93,2.16h52.97c2.73,0,4.41-.16,5.06-.48.64-.32,1.6-.48,2.89-.48,1.12,0,1.69.88,1.69,2.65v10.59c0,1.29-.64,1.93-1.93,1.93h-79.69ZM227.58,599.6c-1.77,0-2.65-.56-2.65-1.68,0-.48.12-1,.36-1.56.24-.56.52-1.28.84-2.16.32-.88.6-2.13.84-3.73.24-1.6.36-3.77.36-6.49,0-41.47.15-82.94.32-124.41.01-2.78-.1-4.97-.33-6.61-.24-1.64-.51-2.92-.83-3.86-.32-.94-.6-1.7-.84-2.3-.24-.6-.36-1.13-.36-1.58,0-1.2.89-1.51,2.67-1.01,15.73,4.11,31.33,7.01,47.45,9.01,1.44.16,2.16.85,2.15,2.13-.02,3.64-.03,5.5-.05,9.24,0,1.6-.65,2.34-1.93,2.21-1.12-.11-2.04-.32-2.76-.63-.72-.3-2.36-.59-4.92-.91-8.26-1.01-12.4-1.62-20.69-3.14-1.45-.27-2.17.22-2.18,1.47-.01,1.98-.02,2.98-.03,4.99,0,1.44.71,2.29,2.16,2.53,11.87,1.92,23.83,3.28,35.82,4.19,1.28.1,1.92.74,1.91,1.94-.01,2.96-.02,4.45-.03,7.44,0,1.36-.65,2-1.93,1.93-11.97-.7-23.93-1.76-35.83-3.3-1.45-.19-2.17.38-2.18,1.7-.16,32.82-.26,65.63-.26,98.45,0,1.29.72,1.93,2.17,1.93h21.67c2.73,0,4.41-.12,5.06-.36.64-.24,1.6-.36,2.89-.36,1.12,0,1.69.88,1.69,2.65v10.35c0,1.29-.64,1.93-1.93,1.93h-48.64Z"/><path class="cls-1" d="M346.71,455.82c10.58-.03,18.57,2.71,23.85,7.63,5.28,4.91,7.89,11.22,7.9,19.04,0,2.41-.23,5.04-.71,7.86-.47,2.82-1.35,5.7-2.62,8.64-13.13,33.9-24.49,68.41-36.19,102.82-2.26,6.89-5.72,12.79-10.38,17.67-4.67,4.89-10.46,7.33-17.38,7.33h-19.31c-1.77,0-2.65-.64-2.65-1.92,0-.48.12-.96.36-1.44.24-.48.52-1.16.84-2.04.32-.88.6-2.09.84-3.61.24-1.52.36-3.65.36-6.37,0-47.46.08-94.92.27-142.38.01-2.5-.1-4.48-.34-5.95-.23-1.47-.51-2.62-.82-3.44-.32-.82-.59-1.49-.83-2.01-.24-.52-.36-1-.35-1.43,0-1.15.88-1.66,2.64-1.54,18.14,1.21,36.35,1.25,54.52,1.17ZM308.96,612.6h1.69c4.49,0,8.43-4.89,11.8-14.69,11.03-33.15,21.81-66.34,34.19-99.03,1.28-3.63,2.25-6.9,2.89-9.83.64-2.93,1.13-5.46,1.2-7.37.17-4.08-1.32-7.42-3.97-9.43-2.64-2-6.69-3.04-12.13-3.1-11.19-.11-22.38-.29-33.56-.68-1.28-.05-1.92.51-1.92,1.68-.13,47.48-.19,94.96-.19,142.44ZM393.23,546.39c-.48,1.29-1.44,1.93-2.89,1.93h-18.54c-.96,0-1.44-.32-1.44-.96,0-.32.24-.96.72-1.93,1.54-3.76,2.31-5.69,3.85-9.37.48-1.26,1.44-1.88,2.89-1.87,7.41.03,11.12.04,18.52.05.96,0,1.45.31,1.45.92,0,.46-.23,1.12-.71,2.08-1.54,3.66-2.31,5.49-3.85,9.15ZM459.45,444.05c1.56-.33,2.37.11,2.42,1.35-.16.78-.23,1.18-.39,1.97-18.03,55.26-38.73,108.91-60.41,162.83-.16.16-.24.56-.24,1.2,0,.8.56,1.2,1.68,1.2h110.61c2.57,0,4.21-.16,4.94-.48.72-.32,1.64-.48,2.77-.48s1.69.88,1.69,2.65v10.59c0,1.29-.64,1.93-1.93,1.93h-140.86c-1.6,0-2.4-.64-2.4-1.93,0-.16.16-.72.48-1.69,21.14-52.8,43.26-105.26,61.54-159.14-.01-.38-.02-.57-.03-.95-.02-.79-.5-1.1-1.43-.95-10.27,1.68-20.49,3.18-30.81,4.5-2.46.29-4.04.57-4.73.87-.69.3-1.58.5-2.66.61-1.23.12-1.86-.63-1.87-2.25-.03-3.8-.05-5.72-.08-9.61-.01-1.36.67-2.1,2.05-2.24,20.1-2.35,39.84-5.88,59.65-9.99ZM472.2,599.6c-1.77,0-2.65-.56-2.65-1.68,0-.48.12-1,.36-1.56.24-.56.52-1.28.84-2.16.32-.88.6-2.13.84-3.73.24-1.6.36-3.77.36-6.49,0-42.02-1.46-83.86-3.12-125.85-.12-2.85-.33-5.04-.63-6.62-.31-1.58-.63-2.76-.99-3.57-.35-.81-.66-1.46-.92-1.96-.26-.5-.4-.98-.42-1.45-.05-1.24.78-2.04,2.52-2.42,16.27-3.58,32.53-7.18,48.83-10.61,1.39-.29,2.12.27,2.15,1.72.1,4.15.15,6.37.25,10.96.04,1.96-.54,3.09-1.75,3.31-1.38.26-2.41.32-3.1.17-.69-.14-2.5.06-5.37.62-8.74,1.7-13,2.56-21.4,4.25-1.31.26-1.92,1.08-1.87,2.48.09,2.2.13,3.31.22,5.56.06,1.61.74,2.31,2.04,2.07,12.47-2.24,24.96-4.41,37.45-6.51,1.56-.26,2.36.41,2.38,2.01.05,3.96.08,5.99.13,10.07.02,1.86-.74,2.89-2.28,3.1-12.4,1.65-24.78,3.4-37.17,5.17-1.3.19-1.92,1.02-1.86,2.51,1.28,34.87,2.24,69.58,2.24,104.47,0,1.29.64,1.93,1.93,1.93h21.91c2.57,0,4.21-.12,4.94-.36.72-.24,1.64-.36,2.77-.36s1.69.88,1.69,2.65v10.35c0,1.29-.64,1.93-1.93,1.93h-48.39Z"/><path class="cls-1" d="M533.83,624.89c0-.48.12-.96.36-1.44.24-.48.52-1.16.84-2.04.32-.88.6-2.13.84-3.73.24-1.6.36-3.77.36-6.49,0-55.27-.18-110.54-.45-165.81-.02-3.25-.16-5.7-.45-7.45-.28-1.75-.61-3.05-.97-3.93-.37-.88-.69-1.59-.97-2.12-.28-.54-.42-1.05-.42-1.55-.01-1.31.97-2.14,2.99-2.52,18.64-3.48,37.2-7.31,55.74-11.31,6.12-1.31,10.95-.75,14.51,2.25,3.56,2.99,5.3,8.36,5.23,16.81-.07,8.45-1.92,15.84-5.56,21.2-3.64,5.36-8.51,8.41-14.62,9.21-11.81,1.55-23.63,3.09-35.46,4.56-1.31.16-1.96,1.12-1.97,2.89-.18,45.91-.27,91.83-.27,137.74,0,2.73.12,4.9.36,6.5.24,1.61.52,2.85.84,3.73.32.88.6,1.56.84,2.05.24.48.36.96.36,1.44,0,1.29-.88,1.93-2.65,1.93h-16.85c-1.77,0-2.65-.64-2.65-1.92ZM553.94,448.91c0,1.85.64,2.69,1.96,2.47,11.46-1.88,22.9-3.85,34.33-5.84,3.38-.59,5.09-3.07,5.12-7.2.04-4.13-1.63-5.73-5.01-5.07-11.45,2.24-22.91,4.47-34.38,6.58-1.32.24-1.98,1.13-1.98,2.71-.01,2.49-.02,3.76-.03,6.35Z"/><path class="cls-1" d="M615.21,624.89c0-.48.12-.96.36-1.44.24-.48.52-1.16.84-2.04.32-.88.6-2.13.84-3.73.24-1.6.36-3.77.36-6.49,0-60.36.35-120.71.81-181.07.03-3.72-.07-6.47-.29-8.43-.22-1.96-.49-3.38-.8-4.35-.31-.97-.58-1.73-.81-2.31-.23-.58-.35-1.13-.34-1.66.01-1.39.9-2.23,2.65-2.59,17.72-3.67,35.55-6.93,53.5-9.24,6.02-.77,10.82.32,14.39,3.87,3.57,3.55,5.36,9.46,5.35,18.78,0,9.32-1.81,17.47-5.4,23.22-3.59,5.76-8.42,8.89-14.48,9.37-11.65.94-23.27,2.11-34.88,3.43-1.28.15-1.92,1.27-1.93,3.37-.27,49.19-.45,98.38-.45,147.58,0,2.73.12,4.9.36,6.5.24,1.61.52,2.85.84,3.73.32.88.6,1.57.84,2.05.24.48.36.96.36,1.44,0,1.29-.88,1.93-2.65,1.93h-16.85c-1.77,0-2.65-.64-2.65-1.92ZM635.57,434.72c-.01,2.14.61,3.14,1.89,2.95,11.17-1.71,22.38-3.24,33.61-4.49,3.34-.37,5.01-3.03,5.02-7.66,0-4.62-1.66-6.55-4.99-6.14-11.23,1.4-22.41,3.12-33.56,5.04-1.27.22-1.91,1.2-1.92,3-.02,2.84-.03,4.3-.05,7.3Z"/><path class="cls-1" d="M699.24,626.81c-1.77,0-2.65-.64-2.65-1.92,0-.48.12-.96.36-1.44.24-.48.52-1.16.84-2.04.32-.88.6-2.13.84-3.73.24-1.6.36-3.77.36-6.49,0-64.03.02-128.05.04-192.08,0-4.03-.12-6.97-.36-9.07-.24-2.1-.52-3.61-.84-4.66-.32-1.04-.6-1.87-.84-2.49-.24-.63-.36-1.2-.36-1.73,0-1.4.87-2.11,2.63-2.22,15.68-.9,31.46-.99,47.17-.71,1.26.02,1.9.76,1.9,2.37.01,4.6.02,7.25.03,12.99,0,2.45-.55,3.74-1.65,3.71-1.27-.03-2.22-.23-2.85-.6-.64-.37-2.3-.58-5-.63-8.19-.14-12.31-.16-20.6-.14-1.29,0-1.93.92-1.93,2.83,0,3.01,0,4.58,0,7.81,0,2.31.64,3.5,1.93,3.5,11.87-.01,23.74.14,35.6.51,1.42.05,2.14,1.11,2.14,3.23.01,5.25.02,7.98.03,13.51,0,2.52-.7,3.77-2.13,3.74-11.88-.27-23.77-.35-35.65-.3-1.29,0-1.93,1.15-1.93,3.46,0,52.07,0,104.14,0,156.21,0,1.44.64,2.17,1.93,2.17h21.91c2.57,0,4.21-.16,4.94-.48.72-.32,1.64-.48,2.77-.48s1.68.88,1.68,2.65v10.59c0,1.29-.64,1.93-1.93,1.93h-48.39ZM763.04,626.81c-1.77,0-2.65-.64-2.65-1.92,0-.48.12-.96.36-1.44.24-.48.52-1.16.84-2.04.32-.88.6-2.13.84-3.73.24-1.6.36-3.77.36-6.49,0-63.98-.19-127.95-.43-191.93-.02-4.05-.15-7.05-.39-9.21-.25-2.16-.53-3.74-.85-4.85-.32-1.11-.6-1.98-.84-2.66-.24-.67-.36-1.28-.36-1.82,0-1.45.85-2.09,2.58-2.02,6.69.28,10.03.47,16.71.95,1.72.12,2.6.88,2.61,2.35,0,.55-.11,1.15-.34,1.8-.23.65-.54,1.5-.92,2.56-.38,1.07-.69,2.62-.9,4.75-.22,2.13-.31,5.11-.29,9.14.42,63.4.76,126.79.76,190.19,0,1.44.72,2.16,2.17,2.16h21.91c2.57,0,4.21-.16,4.94-.48.72-.32,1.64-.48,2.77-.48,1.28,0,1.93.88,1.93,2.65v10.59c0,1.29-.64,1.93-1.93,1.93h-48.88ZM809.68,402.82c1.74.24,2.63,1.06,2.65,2.53,0,.55-.1,1.15-.33,1.78-.23.64-.49,1.47-.8,2.51-.3,1.05-.56,2.58-.77,4.67-.21,2.09-.29,5.03-.25,8.98.6,53.63,1.25,107.26,1.25,160.9,0,2.73.12,4.9.36,6.5.24,1.61.52,2.85.84,3.73.32.88.6,1.61.84,2.17.24.56.36,1.08.36,1.56,0,1.12-.88,1.69-2.65,1.69h-16.85c-1.77,0-2.65-.56-2.65-1.69,0-.48.12-1,.36-1.56.24-.56.52-1.28.84-2.17.32-.88.6-2.13.84-3.73.24-1.6.36-3.77.36-6.5,0-54.26-.53-108.52-1.01-162.78-.04-4.01-.19-7-.44-9.17-.26-2.17-.55-3.78-.88-4.91-.33-1.13-.61-2.03-.85-2.72-.24-.69-.37-1.31-.37-1.87-.02-1.47.84-2.08,2.57-1.91,6.6.67,9.91,1.06,16.56,1.97Z"/><path class="cls-1" d="M839.92,407.83c1.78.38,2.69,1.25,2.71,2.69,0,.54-.11,1.11-.34,1.7-.23.6-.51,1.38-.81,2.37-.31.99-.57,2.46-.78,4.46-.21,2.01-.3,4.82-.25,8.62.06,4.96.1,7.58.16,12.96.08,6.54.95,12.78,2.63,18.36,7.01,24.4,13.54,49.17,23.04,72.75-.33-32.91-.53-65.81-.8-98.72-.03-3.62-.18-6.37-.45-8.41-.27-2.03-.57-3.57-.92-4.68-.34-1.11-.64-2.01-.9-2.7-.26-.69-.39-1.3-.39-1.83-.02-1.4.89-1.81,2.72-1.3,7,1.94,10.54,3,17.71,5.32,1.88.61,2.82,1.55,2.82,2.88,0,.5-.13,1.01-.38,1.52-.26.52-.56,1.21-.9,2.08-.34.87-.64,2.18-.89,3.99-.25,1.81-.37,4.38-.37,7.85.08,57.81.13,115.62.13,173.42,0,2.73.12,4.9.36,6.5.24,1.61.52,2.85.84,3.73.32.88.6,1.56.84,2.05.24.48.36.96.36,1.44,0,1.29-.88,1.93-2.65,1.93h-16.85c-1.77,0-2.65-.64-2.65-1.93,0-.48.12-.96.36-1.44.24-.48.52-1.16.84-2.05.32-.88.6-2.13.84-3.73.24-1.6.36-3.77.36-6.5v-35.87c0-4.17-.8-8.19-2.41-12.04-8.32-18.19-16.21-36.04-22.55-55.03.44,34.31.4,68.62.4,102.94,0,2.73.12,4.9.36,6.5.24,1.61.52,2.85.84,3.73.32.88.6,1.57.84,2.05.24.48.36.96.36,1.44,0,1.29-.88,1.93-2.65,1.93h-16.85c-1.77,0-2.65-.64-2.65-1.93,0-.48.12-.96.36-1.44.24-.48.52-1.16.84-2.05.32-.88.6-2.13.84-3.73.24-1.6.36-3.77.36-6.5,0-62.15-.59-124.28-1.36-186.43-.05-3.89-.21-6.81-.48-8.95-.27-2.13-.57-3.73-.91-4.86-.33-1.13-.63-2.04-.88-2.74-.25-.7-.38-1.32-.39-1.87-.02-1.46.84-2,2.6-1.71,6.71,1.14,10.08,1.78,16.89,3.22Z"/><path class="cls-2" d="M582.11,393.51c235.98-49.08,304.95,8.48,304.95,8.48"/><path class="cls-2" d="M192.88,407.53s95.09,48.49,284.93,10.08"/><path class="cls-1" d="M493.83,403.85c10.18-1.66,13.38-2.62,21.88-4.69,0,1.77,0,2.69,0,4.55-2.93.7-4.32,1.03-7.18,1.69-.03,6.45-.05,10.18-.09,16.2-2.63.62-3.94.94-6.68,1.66.05-6,.08-9.87.13-16.38-3.03.65-4.59.98-8.06,1.64,0-1.95,0-2.9,0-4.68Z"/><path class="cls-1" d="M534.89,406.54c-4.14,1.02-6.21,1.54-10.35,2.57v8.6c-2.73.72-4.1,1.08-6.82,1.73,0-7.93,0-12.83,0-20.76,2.72-.66,4.09-.96,6.82-1.56v7.31c4.14-.96,6.21-1.44,10.35-2.4,0-2.88,0-4.31,0-7.14,2.73-.59,4.09-.9,6.82-1.55,0,7.93,0,11.91,0,19.84-2.73.66-4.09,1.02-6.82,1.75,0-3.31,0-5,0-8.38Z"/><path class="cls-1" d="M545.74,392.31c7.79-2.14,10.64-3.57,20.6-5.25v4.39c-6.54,1.18-9.03,1.93-14.18,3.36.02,1.47.02,2.21.04,3.69,4.85-1.27,7.22-1.92,13.14-3.06,0,1.76,0,2.64.01,4.4-5.84,1.15-8.23,1.73-13.1,2.91.02,1.48.02,2.22.04,3.69,5.23-1.19,7.79-1.75,14.05-3v4.39c-9.23,1.97-12.6,2.57-20.56,4.4-.02-7.91-.03-12-.04-19.91Z"/><line class="cls-2" x1="709.71" y1="659.41" x2="887.07" y2="659.41"/><line class="cls-2" x1="192.88" y1="659.41" x2="370.23" y2="659.41"/><path class="cls-1" d="M391.59,646.69h22.75v4.64h-16.13v5.05h15.32v4.43h-15.32v5.59h16.27v4.64h-22.89v-24.35Z"/><path class="cls-1" d="M429.66,658.5l-9.48-11.8h7.95l5.36,7.57,5.36-7.57h7.95l-9.48,11.8,10.34,12.55h-8.22l-5.94-8.22-5.94,8.22h-8.22l10.34-12.55Z"/><path class="cls-1" d="M453.47,646.69h16.37c6.92,0,8.6,4.13,8.6,7.4,0,5.22-2.73,8.25-8.08,8.25h-10.27v8.7h-6.62v-24.35ZM460.09,657.92h7.1c2.05,0,4.43-.07,4.43-3.34s-1.94-3.45-3.82-3.45h-7.71v6.79Z"/><path class="cls-1" d="M485.98,646.69h22.75v4.64h-16.13v5.05h15.32v4.43h-15.32v5.59h16.27v4.64h-22.89v-24.35Z"/><path class="cls-1" d="M516.61,646.69h17.7c6.72,0,7.88,4.13,7.88,6.62,0,3-1.19,4.88-3.96,5.87v.07c2.87.44,3.34,4.13,3.34,6.52,0,1.19.07,4.09,1.26,5.29h-7.23c-.61-1.06-.65-2.15-.65-4.67,0-3.41-1.47-4.26-3.51-4.26h-8.22v8.94h-6.62v-24.35ZM523.23,657.47h8.77c1.47,0,3.17-.82,3.17-3.1,0-2.42-1.91-3.04-3.51-3.04h-8.43v6.14Z"/><path class="cls-1" d="M549.76,646.69h6.62v24.35h-6.62v-24.35Z"/><path class="cls-1" d="M565.11,646.69h22.75v4.64h-16.13v5.05h15.32v4.43h-15.32v5.59h16.27v4.64h-22.89v-24.35Z"/><path class="cls-1" d="M616.28,646.69h6.41v24.35h-7.2l-13.27-16.99h-.07v16.99h-6.41v-24.35h7.67l12.79,16.99h.07v-16.99Z"/><path class="cls-1" d="M651.99,655.9c-.61-3.51-3.51-5.25-6.96-5.25-6.28,0-7.61,4.91-7.61,8.22s1.33,8.22,7.61,8.22c3.17,0,6.31-1.57,6.96-5.39h7.2c-.82,7.09-6.62,10.03-14.4,10.03-8.87,0-14.39-3.82-14.39-12.86s5.52-12.86,14.39-12.86c5.9,0,13.34,1.5,14.33,9.89h-7.13Z"/><path class="cls-1" d="M666.46,646.69h22.75v4.64h-16.13v5.05h15.32v4.43h-15.32v5.59h16.27v4.64h-22.89v-24.35Z"/></g><g id="Mini_Logos"><use id="_4" width="112.4" height="97.44" transform="translate(951.27 1800.07) scale(.72)" xlink:href="#New_Symbol_6"/><use id="_3" width="89.19" height="92.41" transform="translate(49.59 1798.71) scale(.72)" xlink:href="#New_Symbol_4"/><use id="_2" width="147.56" height="96.18" transform="translate(936.53 54.15) scale(.72)" xlink:href="#New_Symbol_1"/><use id="_1" width="95.39" height="95.39" transform="translate(46.35 49.44) scale(.72)" xlink:href="#New_Symbol_5"/><rect id="Line" class="cls-3" x="20" y="20" width="1040" height="1880"/></g></svg>